<svg width="24" height="24" viewBox="0 0 24 24" fill="none" xmlns="http://www.w3.org/2000/svg">
<circle cx="12" cy="12" r="12" fill="#00875D"/>
<path d="M15.0078 9.28906C15.0078 9.74023 14.9167 10.1322 14.7344 10.4648C14.5521 10.7975 14.3014 11.071 13.9824 11.2852C13.668 11.4948 13.3034 11.6452 12.8887 11.7363V11.7842C13.6862 11.8844 14.2878 12.1351 14.6934 12.5361C15.1035 12.9372 15.3086 13.4681 15.3086 14.1289C15.3086 14.7077 15.1696 15.2249 14.8916 15.6807C14.6136 16.1318 14.1875 16.4873 13.6133 16.7471C13.0391 17.0068 12.3008 17.1367 11.3984 17.1367C10.8561 17.1367 10.3525 17.0934 9.8877 17.0068C9.42741 16.9202 8.98991 16.7812 8.5752 16.5898V15.1611C8.99902 15.3708 9.4502 15.5326 9.92871 15.6465C10.4072 15.7604 10.8607 15.8174 11.2891 15.8174C12.123 15.8174 12.7178 15.6624 13.0732 15.3525C13.4287 15.0381 13.6064 14.6051 13.6064 14.0537C13.6064 13.6982 13.513 13.4066 13.3262 13.1787C13.1439 12.9508 12.859 12.7799 12.4717 12.666C12.0889 12.5521 11.5944 12.4951 10.9883 12.4951H10.1064V11.2031H10.9951C11.5739 11.2031 12.0387 11.1348 12.3896 10.998C12.7406 10.8568 12.9935 10.6631 13.1484 10.417C13.3079 10.1709 13.3877 9.88379 13.3877 9.55566C13.3877 9.12728 13.2487 8.7946 12.9707 8.55762C12.6927 8.31608 12.2803 8.19531 11.7334 8.19531C11.3962 8.19531 11.0885 8.23405 10.8105 8.31152C10.5371 8.389 10.2842 8.48698 10.0518 8.60547C9.81934 8.72396 9.59831 8.85156 9.38867 8.98828L8.61621 7.87402C8.99447 7.59147 9.44564 7.35221 9.96973 7.15625C10.4938 6.96029 11.1045 6.8623 11.8018 6.8623C12.8271 6.8623 13.6178 7.08333 14.1738 7.52539C14.7298 7.96289 15.0078 8.55078 15.0078 9.28906Z" fill="white"/>
</svg>
