<svg width="24" height="24" viewBox="0 0 24 24" fill="none" xmlns="http://www.w3.org/2000/svg">
<circle cx="12" cy="12" r="12" fill="#00875D"/>
<path d="M15.2529 14.8057H13.8994V17H12.3135V14.8057H7.76758V13.5889L12.334 6.97852H13.8994V13.4727H15.2529V14.8057ZM12.3135 13.4727V10.9912C12.3135 10.7861 12.3158 10.5788 12.3203 10.3691C12.3294 10.1549 12.3385 9.94987 12.3477 9.75391C12.3568 9.55794 12.3659 9.37793 12.375 9.21387C12.3841 9.04525 12.391 8.90625 12.3955 8.79688H12.3408C12.2542 8.97917 12.1585 9.16602 12.0537 9.35742C11.9489 9.54427 11.8372 9.72656 11.7188 9.9043L9.25781 13.4727H12.3135Z" fill="white"/>
</svg>
