<svg width="55" height="55" viewBox="0 0 55 55" fill="none" xmlns="http://www.w3.org/2000/svg">
<circle cx="27.5" cy="27.5" r="27.5" fill="#00875D"/>
<path d="M24.3897 32.43H22.3272V35.9808H18.7882V32.43H11.4757V29.9105L18.9874 18.848H22.3272V29.6175H24.3897V32.43ZM18.7882 29.6175V26.7112C18.7882 26.4378 18.7921 26.1136 18.7999 25.7386C18.8155 25.3636 18.8311 24.9886 18.8468 24.6136C18.8624 24.2386 18.878 23.9065 18.8936 23.6175C18.9171 23.3206 18.9327 23.1136 18.9405 22.9964H18.8468C18.6983 23.3167 18.5421 23.6292 18.378 23.9339C18.2139 24.2308 18.0225 24.5433 17.8038 24.8714L14.6632 29.6175H18.7882Z" fill="white"/>
<path d="M30.7638 22.4144L27.5704 30.9808H25.9474L29.1407 22.4144H30.7638ZM35.7794 30.9808H33.9689V26.0237C33.9689 25.887 33.9708 25.719 33.9747 25.5198C33.9786 25.3167 33.9845 25.1097 33.9923 24.8987C34.0001 24.6839 34.0079 24.4905 34.0157 24.3187C33.9728 24.3694 33.8849 24.4573 33.7521 24.5823C33.6232 24.7034 33.5021 24.8128 33.3888 24.9105L32.4044 25.7015L31.5314 24.6116L34.2911 22.4144H35.7794V30.9808ZM44.1115 26.6976C44.1115 27.389 44.0568 28.0062 43.9474 28.5491C43.8419 29.0921 43.67 29.553 43.4318 29.9319C43.1974 30.3108 42.8888 30.5999 42.506 30.7991C42.1232 30.9983 41.6583 31.098 41.1115 31.098C40.424 31.098 39.8595 30.9241 39.4181 30.5765C38.9767 30.2249 38.6505 29.721 38.4396 29.0648C38.2286 28.4046 38.1232 27.6155 38.1232 26.6976C38.1232 25.7718 38.2189 24.9808 38.4103 24.3245C38.6056 23.6644 38.922 23.1585 39.3595 22.8069C39.797 22.4554 40.381 22.2796 41.1115 22.2796C41.795 22.2796 42.3575 22.4554 42.799 22.8069C43.2443 23.1546 43.5743 23.6585 43.7892 24.3187C44.004 24.9749 44.1115 25.7679 44.1115 26.6976ZM39.922 26.6976C39.922 27.3499 39.9572 27.8948 40.0275 28.3323C40.1017 28.7659 40.2247 29.0921 40.3966 29.3108C40.5685 29.5296 40.8068 29.639 41.1115 29.639C41.4122 29.639 41.6486 29.5315 41.8204 29.3167C41.9962 29.098 42.1212 28.7718 42.1954 28.3382C42.2697 27.9007 42.3068 27.3538 42.3068 26.6976C42.3068 26.0452 42.2697 25.5003 42.1954 25.0628C42.1212 24.6253 41.9962 24.2972 41.8204 24.0784C41.6486 23.8558 41.4122 23.7444 41.1115 23.7444C40.8068 23.7444 40.5685 23.8558 40.3966 24.0784C40.2247 24.2972 40.1017 24.6253 40.0275 25.0628C39.9572 25.5003 39.922 26.0452 39.922 26.6976Z" fill="#CBD5E1"/>
</svg>
