<svg width="36" height="36" viewBox="0 0 36 36" fill="none" xmlns="http://www.w3.org/2000/svg">
<circle cx="18" cy="18" r="18" fill="#004C27"/>
<path d="M14.5 17.6348C14.5 18.373 14.4443 19.1055 14.333 19.832C14.2275 20.5586 14.04 21.2441 13.7705 21.8887C13.501 22.5273 13.123 23.0957 12.6367 23.5938C12.1504 24.0859 11.5322 24.4727 10.7822 24.7539C10.0322 25.0352 9.12402 25.1758 8.05762 25.1758C7.80566 25.1758 7.50977 25.1641 7.16992 25.1406C6.83008 25.123 6.54883 25.0938 6.32617 25.0527V22.873C6.56055 22.9316 6.80957 22.9785 7.07324 23.0137C7.33691 23.043 7.60352 23.0576 7.87305 23.0576C8.94531 23.0576 9.77148 22.8877 10.3516 22.5479C10.9375 22.208 11.3477 21.7363 11.582 21.1328C11.8223 20.5293 11.96 19.832 11.9951 19.041H11.8896C11.7197 19.3223 11.5176 19.5771 11.2832 19.8057C11.0547 20.0283 10.7617 20.207 10.4043 20.3418C10.0469 20.4707 9.59277 20.5352 9.04199 20.5352C8.30957 20.5352 7.6709 20.377 7.12598 20.0605C6.58691 19.7383 6.16797 19.2754 5.86914 18.6719C5.57617 18.0625 5.42969 17.3271 5.42969 16.4658C5.42969 15.5342 5.60547 14.7373 5.95703 14.0752C6.31445 13.4072 6.82129 12.8945 7.47754 12.5371C8.13379 12.1797 8.90723 12.001 9.79785 12.001C10.4541 12.001 11.0664 12.1152 11.6348 12.3438C12.2031 12.5664 12.7012 12.9092 13.1289 13.3721C13.5625 13.835 13.8994 14.4209 14.1396 15.1299C14.3799 15.8389 14.5 16.6738 14.5 17.6348ZM9.85059 14.1807C9.32324 14.1807 8.89258 14.3623 8.55859 14.7256C8.22461 15.0889 8.05762 15.6572 8.05762 16.4307C8.05762 17.0518 8.20117 17.5439 8.48828 17.9072C8.77539 18.2705 9.21191 18.4521 9.79785 18.4521C10.2021 18.4521 10.5537 18.3643 10.8525 18.1885C11.1514 18.0068 11.3828 17.7812 11.5469 17.5117C11.7168 17.2363 11.8018 16.9551 11.8018 16.668C11.8018 16.3691 11.7607 16.0732 11.6787 15.7803C11.5967 15.4873 11.4736 15.2207 11.3096 14.9805C11.1455 14.7402 10.9404 14.5469 10.6943 14.4004C10.4541 14.2539 10.1729 14.1807 9.85059 14.1807Z" fill="white"/>
<path d="M19.582 14.8613L16.9209 22H15.5684L18.2295 14.8613H19.582ZM23.7617 22H22.2529V17.8691C22.2529 17.7552 22.2546 17.6152 22.2578 17.4492C22.2611 17.2799 22.266 17.1074 22.2725 16.9316C22.279 16.7526 22.2855 16.5915 22.292 16.4482C22.2562 16.4906 22.1829 16.5638 22.0723 16.668C21.9648 16.7689 21.8639 16.86 21.7695 16.9414L20.9492 17.6006L20.2217 16.6924L22.5215 14.8613H23.7617V22ZM30.7051 18.4307C30.7051 19.0068 30.6595 19.5212 30.5684 19.9736C30.4805 20.4261 30.3372 20.8102 30.1387 21.126C29.9434 21.4417 29.6862 21.6826 29.3672 21.8486C29.0482 22.0146 28.6608 22.0977 28.2051 22.0977C27.6322 22.0977 27.1618 21.9528 26.7939 21.6631C26.4261 21.3701 26.1543 20.9502 25.9785 20.4033C25.8027 19.8532 25.7148 19.1956 25.7148 18.4307C25.7148 17.6592 25.7946 17 25.9541 16.4531C26.1169 15.903 26.3805 15.4814 26.7451 15.1885C27.1097 14.8955 27.5964 14.749 28.2051 14.749C28.7747 14.749 29.2435 14.8955 29.6113 15.1885C29.9824 15.4782 30.2575 15.8981 30.4365 16.4482C30.6156 16.9951 30.7051 17.6559 30.7051 18.4307ZM27.2139 18.4307C27.2139 18.9743 27.2432 19.4284 27.3018 19.793C27.3636 20.1543 27.4661 20.4261 27.6094 20.6084C27.7526 20.7907 27.9512 20.8818 28.2051 20.8818C28.4557 20.8818 28.6527 20.7923 28.7959 20.6133C28.9424 20.431 29.0465 20.1592 29.1084 19.7979C29.1702 19.4333 29.2012 18.9775 29.2012 18.4307C29.2012 17.887 29.1702 17.4329 29.1084 17.0684C29.0465 16.7038 28.9424 16.4303 28.7959 16.248C28.6527 16.0625 28.4557 15.9697 28.2051 15.9697C27.9512 15.9697 27.7526 16.0625 27.6094 16.248C27.4661 16.4303 27.3636 16.7038 27.3018 17.0684C27.2432 17.4329 27.2139 17.887 27.2139 18.4307Z" fill="#CBD5E1"/>
</svg>
