<svg width="38" height="38" viewBox="0 0 38 38" fill="none" xmlns="http://www.w3.org/2000/svg">
<circle cx="19" cy="19" r="19" fill="#004C27"/>
<path d="M8.63477 26H5.91895V18.5645C5.91895 18.3594 5.92188 18.1074 5.92773 17.8086C5.93359 17.5039 5.94238 17.1934 5.9541 16.877C5.96582 16.5547 5.97754 16.2646 5.98926 16.0068C5.9248 16.083 5.79297 16.2148 5.59375 16.4023C5.40039 16.584 5.21875 16.748 5.04883 16.8945L3.57227 18.0811L2.2627 16.4463L6.40234 13.1504H8.63477V26ZM20.1328 19.5752C20.1328 20.6123 20.0508 21.5381 19.8867 22.3525C19.7285 23.167 19.4707 23.8584 19.1133 24.4268C18.7617 24.9951 18.2988 25.4287 17.7246 25.7275C17.1504 26.0264 16.4531 26.1758 15.6328 26.1758C14.6016 26.1758 13.7549 25.915 13.0928 25.3936C12.4307 24.8662 11.9414 24.1104 11.625 23.126C11.3086 22.1357 11.1504 20.9521 11.1504 19.5752C11.1504 18.1865 11.2939 17 11.5811 16.0156C11.874 15.0254 12.3486 14.2666 13.0049 13.7393C13.6611 13.2119 14.5371 12.9482 15.6328 12.9482C16.6582 12.9482 17.502 13.2119 18.1641 13.7393C18.832 14.2607 19.3271 15.0166 19.6494 16.0068C19.9717 16.9912 20.1328 18.1807 20.1328 19.5752ZM13.8486 19.5752C13.8486 20.5537 13.9014 21.3711 14.0068 22.0273C14.1182 22.6777 14.3027 23.167 14.5605 23.4951C14.8184 23.8232 15.1758 23.9873 15.6328 23.9873C16.084 23.9873 16.4385 23.8262 16.6963 23.5039C16.96 23.1758 17.1475 22.6865 17.2588 22.0361C17.3701 21.3799 17.4258 20.5596 17.4258 19.5752C17.4258 18.5967 17.3701 17.7793 17.2588 17.123C17.1475 16.4668 16.96 15.9746 16.6963 15.6465C16.4385 15.3125 16.084 15.1455 15.6328 15.1455C15.1758 15.1455 14.8184 15.3125 14.5605 15.6465C14.3027 15.9746 14.1182 16.4668 14.0068 17.123C13.9014 17.7793 13.8486 18.5967 13.8486 19.5752Z" fill="white"/>
<path d="M25.082 15.8613L22.4209 23H21.0684L23.7295 15.8613H25.082ZM29.2617 23H27.7529V18.8691C27.7529 18.7552 27.7546 18.6152 27.7578 18.4492C27.7611 18.2799 27.766 18.1074 27.7725 17.9316C27.779 17.7526 27.7855 17.5915 27.792 17.4482C27.7562 17.4906 27.6829 17.5638 27.5723 17.668C27.4648 17.7689 27.3639 17.86 27.2695 17.9414L26.4492 18.6006L25.7217 17.6924L28.0215 15.8613H29.2617V23ZM35.2051 19.4307C35.2051 20.0068 35.1595 20.5212 35.0684 20.9736C34.9805 21.4261 34.8372 21.8102 34.6387 22.126C34.4434 22.4417 34.1862 22.6826 33.8672 22.8486C33.5482 23.0146 33.1608 23.0977 32.7051 23.0977C32.1322 23.0977 31.6618 22.9528 31.2939 22.6631C30.9261 22.3701 30.6543 21.9502 30.4785 21.4033C30.3027 20.8532 30.2148 20.1956 30.2148 19.4307C30.2148 18.6592 30.2946 18 30.4541 17.4531C30.6169 16.903 30.8805 16.4814 31.2451 16.1885C31.6097 15.8955 32.0964 15.749 32.7051 15.749C33.2747 15.749 33.7435 15.8955 34.1113 16.1885C34.4824 16.4782 34.7575 16.8981 34.9365 17.4482C35.1156 17.9951 35.2051 18.6559 35.2051 19.4307ZM31.7139 19.4307C31.7139 19.9743 31.7432 20.4284 31.8018 20.793C31.8636 21.1543 31.9661 21.4261 32.1094 21.6084C32.2526 21.7907 32.4512 21.8818 32.7051 21.8818C32.9557 21.8818 33.1527 21.7923 33.2959 21.6133C33.4424 21.431 33.5465 21.1592 33.6084 20.7979C33.6702 20.4333 33.7012 19.9775 33.7012 19.4307C33.7012 18.887 33.6702 18.4329 33.6084 18.0684C33.5465 17.7038 33.4424 17.4303 33.2959 17.248C33.1527 17.0625 32.9557 16.9697 32.7051 16.9697C32.4512 16.9697 32.2526 17.0625 32.1094 17.248C31.9661 17.4303 31.8636 17.7038 31.8018 18.0684C31.7432 18.4329 31.7139 18.887 31.7139 19.4307Z" fill="#CBD5E1"/>
</svg>
