<svg width="55" height="55" viewBox="0 0 55 55" fill="none" xmlns="http://www.w3.org/2000/svg">
<circle cx="27.5" cy="27.5" r="27.5" fill="#004C27"/>
<path d="M13.1797 36H9.55859V26.0859C9.55859 25.8125 9.5625 25.4766 9.57031 25.0781C9.57812 24.6719 9.58984 24.2578 9.60547 23.8359C9.62109 23.4062 9.63672 23.0195 9.65234 22.6758C9.56641 22.7773 9.39062 22.9531 9.125 23.2031C8.86719 23.4453 8.625 23.6641 8.39844 23.8594L6.42969 25.4414L4.68359 23.2617L10.2031 18.8672H13.1797V36ZM29.8438 27.4336C29.8438 28.8164 29.7344 30.0508 29.5156 31.1367C29.3047 32.2227 28.9609 33.1445 28.4844 33.9023C28.0156 34.6602 27.3984 35.2383 26.6328 35.6367C25.8672 36.0352 24.9375 36.2344 23.8438 36.2344C22.4688 36.2344 21.3398 35.8867 20.457 35.1914C19.5742 34.4883 18.9219 33.4805 18.5 32.168C18.0781 30.8477 17.8672 29.2695 17.8672 27.4336C17.8672 25.582 18.0586 24 18.4414 22.6875C18.832 21.3672 19.4648 20.3555 20.3398 19.6523C21.2148 18.9492 22.3828 18.5977 23.8438 18.5977C25.2109 18.5977 26.3359 18.9492 27.2188 19.6523C28.1094 20.3477 28.7695 21.3555 29.1992 22.6758C29.6289 23.9883 29.8438 25.5742 29.8438 27.4336ZM21.4648 27.4336C21.4648 28.7383 21.5352 29.8281 21.6758 30.7031C21.8242 31.5703 22.0703 32.2227 22.4141 32.6602C22.7578 33.0977 23.2344 33.3164 23.8438 33.3164C24.4453 33.3164 24.918 33.1016 25.2617 32.6719C25.6133 32.2344 25.8633 31.582 26.0117 30.7148C26.1602 29.8398 26.2344 28.7461 26.2344 27.4336C26.2344 26.1289 26.1602 25.0391 26.0117 24.1641C25.8633 23.2891 25.6133 22.6328 25.2617 22.1953C24.918 21.75 24.4453 21.5273 23.8438 21.5273C23.2344 21.5273 22.7578 21.75 22.4141 22.1953C22.0703 22.6328 21.8242 23.2891 21.6758 24.1641C21.5352 25.0391 21.4648 26.1289 21.4648 27.4336Z" fill="white"/>
<path d="M35.8984 22.9336L32.7051 31.5H31.082L34.2754 22.9336H35.8984ZM40.9141 31.5H39.1035V26.543C39.1035 26.4062 39.1055 26.2383 39.1094 26.0391C39.1133 25.8359 39.1191 25.6289 39.127 25.418C39.1348 25.2031 39.1426 25.0098 39.1504 24.8379C39.1074 24.8887 39.0195 24.9766 38.8867 25.1016C38.7578 25.2227 38.6367 25.332 38.5234 25.4297L37.5391 26.2207L36.666 25.1309L39.4258 22.9336H40.9141V31.5ZM49.2461 27.2168C49.2461 27.9082 49.1914 28.5254 49.082 29.0684C48.9766 29.6113 48.8047 30.0723 48.5664 30.4512C48.332 30.8301 48.0234 31.1191 47.6406 31.3184C47.2578 31.5176 46.793 31.6172 46.2461 31.6172C45.5586 31.6172 44.9941 31.4434 44.5527 31.0957C44.1113 30.7441 43.7852 30.2402 43.5742 29.584C43.3633 28.9238 43.2578 28.1348 43.2578 27.2168C43.2578 26.291 43.3535 25.5 43.5449 24.8438C43.7402 24.1836 44.0566 23.6777 44.4941 23.3262C44.9316 22.9746 45.5156 22.7988 46.2461 22.7988C46.9297 22.7988 47.4922 22.9746 47.9336 23.3262C48.3789 23.6738 48.709 24.1777 48.9238 24.8379C49.1387 25.4941 49.2461 26.2871 49.2461 27.2168ZM45.0566 27.2168C45.0566 27.8691 45.0918 28.4141 45.1621 28.8516C45.2363 29.2852 45.3594 29.6113 45.5312 29.8301C45.7031 30.0488 45.9414 30.1582 46.2461 30.1582C46.5469 30.1582 46.7832 30.0508 46.9551 29.8359C47.1309 29.6172 47.2559 29.291 47.3301 28.8574C47.4043 28.4199 47.4414 27.873 47.4414 27.2168C47.4414 26.5645 47.4043 26.0195 47.3301 25.582C47.2559 25.1445 47.1309 24.8164 46.9551 24.5977C46.7832 24.375 46.5469 24.2637 46.2461 24.2637C45.9414 24.2637 45.7031 24.375 45.5312 24.5977C45.3594 24.8164 45.2363 25.1445 45.1621 25.582C45.0918 26.0195 45.0566 26.5645 45.0566 27.2168Z" fill="#CBD5E1"/>
</svg>
