<svg width="25" height="24" viewBox="0 0 25 24" fill="none" xmlns="http://www.w3.org/2000/svg">
<circle cx="13" cy="12" r="12" fill="#004C27"/>
<path d="M9.84082 17H8.22754V10.5674C8.22754 10.3532 8.22982 10.139 8.23438 9.9248C8.23893 9.71061 8.24349 9.50098 8.24805 9.2959C8.25716 9.09082 8.26855 8.89486 8.28223 8.70801C8.18652 8.81283 8.06803 8.92676 7.92676 9.0498C7.79004 9.17285 7.64421 9.30046 7.48926 9.43262L6.34082 10.3486L5.53418 9.33008L8.50098 7.00586H9.84082V17ZM19.8965 11.9961C19.8965 12.8027 19.8327 13.5251 19.7051 14.1631C19.582 14.7965 19.3861 15.3343 19.1172 15.7764C18.8483 16.2184 18.4974 16.5557 18.0645 16.7881C17.6315 17.0205 17.1074 17.1367 16.4922 17.1367C15.722 17.1367 15.0863 16.9339 14.585 16.5283C14.0837 16.1182 13.7122 15.5303 13.4707 14.7646C13.2292 13.9945 13.1084 13.0716 13.1084 11.9961C13.1084 10.9206 13.2178 10 13.4365 9.23438C13.6598 8.46419 14.0199 7.87402 14.5166 7.46387C15.0133 7.05371 15.6719 6.84863 16.4922 6.84863C17.2669 6.84863 17.9049 7.05371 18.4062 7.46387C18.9121 7.86947 19.2858 8.45736 19.5273 9.22754C19.7734 9.99316 19.8965 10.916 19.8965 11.9961ZM14.7285 11.9961C14.7285 12.8392 14.7832 13.5433 14.8926 14.1084C15.0065 14.6735 15.1934 15.0973 15.4531 15.3799C15.7129 15.6579 16.0592 15.7969 16.4922 15.7969C16.9251 15.7969 17.2715 15.6579 17.5312 15.3799C17.791 15.1019 17.9779 14.6803 18.0918 14.1152C18.2103 13.5501 18.2695 12.8438 18.2695 11.9961C18.2695 11.1576 18.2126 10.4557 18.0986 9.89062C17.9847 9.32552 17.7979 8.90169 17.5381 8.61914C17.2783 8.33203 16.9297 8.18848 16.4922 8.18848C16.0547 8.18848 15.7061 8.33203 15.4463 8.61914C15.1911 8.90169 15.0065 9.32552 14.8926 9.89062C14.7832 10.4557 14.7285 11.1576 14.7285 11.9961Z" fill="white"/>
</svg>
