<svg width="24" height="24" viewBox="0 0 24 24" fill="none" xmlns="http://www.w3.org/2000/svg">
<circle cx="12" cy="12" r="12" fill="#00774F"/>
<path d="M8.13672 12.7412C8.13672 12.1533 8.17773 11.5745 8.25977 11.0049C8.34635 10.4352 8.49219 9.90202 8.69727 9.40527C8.90234 8.90853 9.1849 8.47103 9.54492 8.09277C9.90951 7.71452 10.3675 7.41829 10.9189 7.2041C11.4704 6.98535 12.1335 6.87598 12.9082 6.87598C13.1087 6.87598 13.3343 6.88509 13.585 6.90332C13.8356 6.92155 14.043 6.95117 14.207 6.99219V8.3252C14.0293 8.27507 13.8333 8.23633 13.6191 8.20898C13.4095 8.18164 13.1999 8.16797 12.9902 8.16797C12.1517 8.16797 11.4977 8.32747 11.0283 8.64648C10.5589 8.96094 10.224 9.39388 10.0234 9.94531C9.82292 10.4922 9.70671 11.1188 9.6748 11.8252H9.75684C9.89355 11.5973 10.0645 11.3945 10.2695 11.2168C10.4746 11.0391 10.7253 10.8978 11.0215 10.793C11.3177 10.6836 11.6618 10.6289 12.0537 10.6289C12.637 10.6289 13.1452 10.752 13.5781 10.998C14.0111 11.2396 14.3438 11.5905 14.5762 12.0508C14.8132 12.5111 14.9316 13.0693 14.9316 13.7256C14.9316 14.432 14.7972 15.0404 14.5283 15.5508C14.264 16.0612 13.8857 16.4531 13.3936 16.7266C12.9059 17 12.3249 17.1367 11.6504 17.1367C11.1536 17.1367 10.6911 17.0456 10.2627 16.8633C9.83887 16.681 9.46745 16.4076 9.14844 16.043C8.82943 15.6784 8.58105 15.2227 8.40332 14.6758C8.22559 14.1243 8.13672 13.4795 8.13672 12.7412ZM11.623 15.8105C12.1426 15.8105 12.5596 15.6419 12.874 15.3047C13.193 14.9629 13.3525 14.4411 13.3525 13.7393C13.3525 13.1696 13.2113 12.7184 12.9287 12.3857C12.6507 12.0531 12.2314 11.8867 11.6709 11.8867C11.2881 11.8867 10.9531 11.9688 10.666 12.1328C10.3789 12.2969 10.1556 12.5042 9.99609 12.7549C9.84115 13.0055 9.76367 13.2607 9.76367 13.5205C9.76367 13.7848 9.80241 14.0514 9.87988 14.3203C9.95736 14.5892 10.0736 14.8376 10.2285 15.0654C10.3835 15.2887 10.5771 15.4688 10.8096 15.6055C11.042 15.7422 11.3132 15.8105 11.623 15.8105Z" fill="white"/>
</svg>
