<svg width="36" height="36" viewBox="0 0 36 36" fill="none" xmlns="http://www.w3.org/2000/svg">
<circle cx="18" cy="18" r="18" fill="#029468"/>
<path d="M11.7852 25H9.06934V17.5645C9.06934 17.3594 9.07227 17.1074 9.07812 16.8086C9.08398 16.5039 9.09277 16.1934 9.10449 15.877C9.11621 15.5547 9.12793 15.2646 9.13965 15.0068C9.0752 15.083 8.94336 15.2148 8.74414 15.4023C8.55078 15.584 8.36914 15.748 8.19922 15.8945L6.72266 17.0811L5.41309 15.4463L9.55273 12.1504H11.7852V25Z" fill="white"/>
<path d="M19.082 14.8613L16.4209 22H15.0684L17.7295 14.8613H19.082ZM23.2617 22H21.7529V17.8691C21.7529 17.7552 21.7546 17.6152 21.7578 17.4492C21.7611 17.2799 21.766 17.1074 21.7725 16.9316C21.779 16.7526 21.7855 16.5915 21.792 16.4482C21.7562 16.4906 21.6829 16.5638 21.5723 16.668C21.4648 16.7689 21.3639 16.86 21.2695 16.9414L20.4492 17.6006L19.7217 16.6924L22.0215 14.8613H23.2617V22ZM30.2051 18.4307C30.2051 19.0068 30.1595 19.5212 30.0684 19.9736C29.9805 20.4261 29.8372 20.8102 29.6387 21.126C29.4434 21.4417 29.1862 21.6826 28.8672 21.8486C28.5482 22.0146 28.1608 22.0977 27.7051 22.0977C27.1322 22.0977 26.6618 21.9528 26.2939 21.6631C25.9261 21.3701 25.6543 20.9502 25.4785 20.4033C25.3027 19.8532 25.2148 19.1956 25.2148 18.4307C25.2148 17.6592 25.2946 17 25.4541 16.4531C25.6169 15.903 25.8805 15.4814 26.2451 15.1885C26.6097 14.8955 27.0964 14.749 27.7051 14.749C28.2747 14.749 28.7435 14.8955 29.1113 15.1885C29.4824 15.4782 29.7575 15.8981 29.9365 16.4482C30.1156 16.9951 30.2051 17.6559 30.2051 18.4307ZM26.7139 18.4307C26.7139 18.9743 26.7432 19.4284 26.8018 19.793C26.8636 20.1543 26.9661 20.4261 27.1094 20.6084C27.2526 20.7907 27.4512 20.8818 27.7051 20.8818C27.9557 20.8818 28.1527 20.7923 28.2959 20.6133C28.4424 20.431 28.5465 20.1592 28.6084 19.7979C28.6702 19.4333 28.7012 18.9775 28.7012 18.4307C28.7012 17.887 28.6702 17.4329 28.6084 17.0684C28.5465 16.7038 28.4424 16.4303 28.2959 16.248C28.1527 16.0625 27.9557 15.9697 27.7051 15.9697C27.4512 15.9697 27.2526 16.0625 27.1094 16.248C26.9661 16.4303 26.8636 16.7038 26.8018 17.0684C26.7432 17.4329 26.7139 17.887 26.7139 18.4307Z" fill="#CBD5E1"/>
</svg>
