<svg width="55" height="55" viewBox="0 0 55 55" fill="none" xmlns="http://www.w3.org/2000/svg">
<circle cx="27.5" cy="27.5" r="27.5" fill="#00875D"/>
<path d="M23.8448 22.6992C23.8448 23.4883 23.6807 24.1719 23.3526 24.75C23.0245 25.3281 22.5792 25.8008 22.0167 26.168C21.462 26.5352 20.837 26.8047 20.1417 26.9766V27.0469C21.5167 27.2188 22.5596 27.6406 23.2706 28.3125C23.9893 28.9844 24.3487 29.8828 24.3487 31.0078C24.3487 32.0078 24.1026 32.9023 23.6104 33.6914C23.1261 34.4805 22.3761 35.1016 21.3604 35.5547C20.3448 36.0078 19.0362 36.2344 17.4346 36.2344C16.4893 36.2344 15.6065 36.1562 14.7862 36C13.9737 35.8516 13.2081 35.6211 12.4893 35.3086V32.2266C13.2237 32.6016 13.9932 32.8867 14.7979 33.082C15.6026 33.2695 16.3526 33.3633 17.0479 33.3633C18.3448 33.3633 19.2511 33.1406 19.7667 32.6953C20.2901 32.2422 20.5518 31.6094 20.5518 30.7969C20.5518 30.3203 20.4307 29.918 20.1886 29.5898C19.9464 29.2617 19.5245 29.0117 18.9229 28.8398C18.3292 28.668 17.4971 28.582 16.4268 28.582H15.1261V25.8047H16.4503C17.505 25.8047 18.3057 25.707 18.8526 25.5117C19.4073 25.3086 19.7823 25.0352 19.9776 24.6914C20.1807 24.3398 20.2823 23.9414 20.2823 23.4961C20.2823 22.8867 20.0948 22.4102 19.7198 22.0664C19.3448 21.7227 18.7198 21.5508 17.8448 21.5508C17.2979 21.5508 16.7979 21.6211 16.3448 21.7617C15.8995 21.8945 15.4971 22.0586 15.1378 22.2539C14.7784 22.4414 14.462 22.625 14.1886 22.8047L12.5128 20.3086C13.1846 19.8242 13.9698 19.4219 14.8682 19.1016C15.7745 18.7812 16.8526 18.6211 18.1026 18.6211C19.8682 18.6211 21.2667 18.9766 22.2979 19.6875C23.3292 20.3984 23.8448 21.4023 23.8448 22.6992Z" fill="white"/>
<path d="M31.2736 22.4336L28.0802 31H26.4572L29.6505 22.4336H31.2736ZM36.2892 31H34.4786V26.043C34.4786 25.9062 34.4806 25.7383 34.4845 25.5391C34.4884 25.3359 34.4943 25.1289 34.5021 24.918C34.5099 24.7031 34.5177 24.5098 34.5255 24.3379C34.4825 24.3887 34.3947 24.4766 34.2618 24.6016C34.1329 24.7227 34.0118 24.832 33.8986 24.9297L32.9142 25.7207L32.0411 24.6309L34.8009 22.4336H36.2892V31ZM44.6212 26.7168C44.6212 27.4082 44.5665 28.0254 44.4572 28.5684C44.3517 29.1113 44.1798 29.5723 43.9415 29.9512C43.7072 30.3301 43.3986 30.6191 43.0157 30.8184C42.6329 31.0176 42.1681 31.1172 41.6212 31.1172C40.9337 31.1172 40.3693 30.9434 39.9279 30.5957C39.4865 30.2441 39.1603 29.7402 38.9493 29.084C38.7384 28.4238 38.6329 27.6348 38.6329 26.7168C38.6329 25.791 38.7286 25 38.92 24.3438C39.1154 23.6836 39.4318 23.1777 39.8693 22.8262C40.3068 22.4746 40.8907 22.2988 41.6212 22.2988C42.3048 22.2988 42.8673 22.4746 43.3087 22.8262C43.754 23.1738 44.0841 23.6777 44.299 24.3379C44.5138 24.9941 44.6212 25.7871 44.6212 26.7168ZM40.4318 26.7168C40.4318 27.3691 40.4669 27.9141 40.5372 28.3516C40.6115 28.7852 40.7345 29.1113 40.9064 29.3301C41.0782 29.5488 41.3165 29.6582 41.6212 29.6582C41.922 29.6582 42.1583 29.5508 42.3302 29.3359C42.506 29.1172 42.631 28.791 42.7052 28.3574C42.7794 27.9199 42.8165 27.373 42.8165 26.7168C42.8165 26.0645 42.7794 25.5195 42.7052 25.082C42.631 24.6445 42.506 24.3164 42.3302 24.0977C42.1583 23.875 41.922 23.7637 41.6212 23.7637C41.3165 23.7637 41.0782 23.875 40.9064 24.0977C40.7345 24.3164 40.6115 24.6445 40.5372 25.082C40.4669 25.5195 40.4318 26.0645 40.4318 26.7168Z" fill="#CBD5E1"/>
</svg>
