<svg width="36" height="36" viewBox="0 0 36 36" fill="none" xmlns="http://www.w3.org/2000/svg">
<circle cx="18" cy="18" r="18" fill="#475569"/>
<circle cx="18" cy="18" r="18" stroke="#E2E8F0"/>
<path d="M17.9814 25H14.5186L8.92871 15.2793H8.84961C8.87305 15.6836 8.89355 16.0908 8.91113 16.501C8.92871 16.9111 8.94629 17.3213 8.96387 17.7314C8.98145 18.1357 8.99902 18.543 9.0166 18.9531V25H6.58203V12.1504H10.0186L15.5996 21.7744H15.6611C15.6494 21.376 15.6348 20.9805 15.6172 20.5879C15.5996 20.1953 15.582 19.8027 15.5645 19.4102C15.5527 19.0176 15.541 18.625 15.5293 18.2324V12.1504H17.9814V25ZM28.0908 25L27.1592 21.9414H22.4746L21.543 25H18.6074L23.1426 12.0977H26.4736L31.0264 25H28.0908ZM26.5088 19.6562L25.5771 16.668C25.5186 16.4688 25.4395 16.2139 25.3398 15.9033C25.2461 15.5869 25.1494 15.2676 25.0498 14.9453C24.9561 14.6172 24.8799 14.333 24.8213 14.0928C24.7627 14.333 24.6807 14.6318 24.5752 14.9893C24.4756 15.3408 24.3789 15.6748 24.2852 15.9912C24.1914 16.3076 24.124 16.5332 24.083 16.668L23.1602 19.6562H26.5088Z" fill="white"/>
</svg>
