<svg width="36" height="36" viewBox="0 0 36 36" fill="none" xmlns="http://www.w3.org/2000/svg">
<circle cx="18" cy="18" r="18" fill="#00774F"/>
<path d="M10.4384 17.0217C11.2236 17.0217 11.9208 17.1711 12.5302 17.47C13.1454 17.7688 13.6288 18.2083 13.9804 18.7883C14.332 19.3684 14.5078 20.0833 14.5078 20.9329C14.5078 21.8586 14.3144 22.6584 13.9277 23.3323C13.5468 24.0002 12.9755 24.5129 12.2138 24.8704C11.4579 25.2278 10.5146 25.4065 9.38373 25.4065C8.7099 25.4065 8.07416 25.3479 7.4765 25.2307C6.8847 25.1194 6.36615 24.9465 5.92084 24.7122V22.3655C6.36615 22.5999 6.89935 22.7991 7.52045 22.9631C8.1474 23.1213 8.73627 23.2004 9.28705 23.2004C9.82611 23.2004 10.2802 23.1301 10.6494 22.9895C11.0185 22.843 11.2968 22.6204 11.4843 22.3215C11.6777 22.0168 11.7744 21.6301 11.7744 21.1614C11.7744 20.5344 11.5634 20.054 11.1415 19.72C10.7197 19.386 10.0722 19.219 9.19916 19.219C8.86517 19.219 8.51654 19.2512 8.15326 19.3157C7.79584 19.3801 7.49701 19.4446 7.25677 19.509L6.17572 18.929L6.65912 12.3811H13.6288V14.6838H9.04095L8.80365 17.2063C9.00287 17.1653 9.21967 17.1243 9.45404 17.0833C9.68842 17.0422 10.0165 17.0217 10.4384 17.0217Z" fill="white"/>
<path d="M19.7744 15.092L17.1132 22.2307H15.7607L18.4218 15.092H19.7744ZM23.954 22.2307H22.4453V18.0999C22.4453 17.9859 22.4469 17.8459 22.4501 17.6799C22.4534 17.5107 22.4583 17.3381 22.4648 17.1624C22.4713 16.9833 22.4778 16.8222 22.4843 16.679C22.4485 16.7213 22.3753 16.7945 22.2646 16.8987C22.1572 16.9996 22.0563 17.0907 21.9619 17.1721L21.1415 17.8313L20.414 16.9231L22.7138 15.092H23.954V22.2307ZM30.8974 18.6614C30.8974 19.2375 30.8518 19.7519 30.7607 20.2043C30.6728 20.6568 30.5296 21.0409 30.331 21.3567C30.1357 21.6724 29.8785 21.9133 29.5595 22.0793C29.2405 22.2454 28.8531 22.3284 28.3974 22.3284C27.8245 22.3284 27.3541 22.1835 26.9863 21.8938C26.6184 21.6008 26.3466 21.1809 26.1708 20.634C25.9951 20.0839 25.9072 19.4264 25.9072 18.6614C25.9072 17.8899 25.9869 17.2307 26.1464 16.6838C26.3092 16.1337 26.5729 15.7122 26.9374 15.4192C27.302 15.1262 27.7887 14.9797 28.3974 14.9797C28.9671 14.9797 29.4358 15.1262 29.8036 15.4192C30.1747 15.7089 30.4498 16.1288 30.6288 16.679C30.8079 17.2258 30.8974 17.8866 30.8974 18.6614ZM27.4062 18.6614C27.4062 19.205 27.4355 19.6591 27.4941 20.0237C27.5559 20.385 27.6585 20.6568 27.8017 20.8391C27.9449 21.0214 28.1435 21.1125 28.3974 21.1125C28.6481 21.1125 28.845 21.023 28.9882 20.844C29.1347 20.6617 29.2389 20.3899 29.3007 20.0286C29.3626 19.664 29.3935 19.2083 29.3935 18.6614C29.3935 18.1178 29.3626 17.6637 29.3007 17.2991C29.2389 16.9345 29.1347 16.6611 28.9882 16.4788C28.845 16.2932 28.6481 16.2004 28.3974 16.2004C28.1435 16.2004 27.9449 16.2932 27.8017 16.4788C27.6585 16.6611 27.5559 16.9345 27.4941 17.2991C27.4355 17.6637 27.4062 18.1178 27.4062 18.6614Z" fill="#CBD5E1"/>
</svg>
