<svg width="24" height="24" viewBox="0 0 24 24" fill="none" xmlns="http://www.w3.org/2000/svg">
<circle cx="12" cy="12" r="12" fill="#475569"/>
<circle cx="12" cy="12" r="12" stroke="#E2E8F0"/>
<path d="M11.5547 16H10.4062L5.73633 8.80469H5.68945C5.70117 8.99609 5.71484 9.21484 5.73047 9.46094C5.74609 9.70312 5.75781 9.96289 5.76562 10.2402C5.77734 10.5137 5.7832 10.793 5.7832 11.0781V16H4.85742V7.43359H6L10.6523 14.6055H10.6934C10.6855 14.4688 10.6758 14.2754 10.6641 14.0254C10.6523 13.7715 10.6406 13.5 10.6289 13.2109C10.6211 12.918 10.6172 12.6465 10.6172 12.3965V7.43359H11.5547V16ZM19.2656 16L18.2109 13.2812H14.7773L13.7285 16H12.7207L16.0723 7.39844H16.9688L20.2969 16H19.2656ZM17.9121 12.3965L16.9102 9.69531C16.8867 9.625 16.8477 9.50977 16.793 9.34961C16.7422 9.18945 16.6895 9.02344 16.6348 8.85156C16.5801 8.67969 16.5352 8.54102 16.5 8.43555C16.4609 8.5957 16.418 8.75586 16.3711 8.91602C16.3281 9.07227 16.2852 9.21875 16.2422 9.35547C16.1992 9.48828 16.1621 9.60156 16.1309 9.69531L15.1113 12.3965H17.9121Z" fill="white"/>
</svg>
