<svg width="55" height="55" viewBox="0 0 55 55" fill="none" xmlns="http://www.w3.org/2000/svg">
<circle cx="27.5" cy="27.5" r="27.5" fill="#00774F"/>
<path d="M18.7706 25.0547C19.8175 25.0547 20.7471 25.2539 21.5596 25.6523C22.38 26.0508 23.0245 26.6367 23.4932 27.4102C23.962 28.1836 24.1964 29.1367 24.1964 30.2695C24.1964 31.5039 23.9386 32.5703 23.4229 33.4688C22.9151 34.3594 22.1534 35.043 21.1378 35.5195C20.13 35.9961 18.8721 36.2344 17.3643 36.2344C16.4659 36.2344 15.6182 36.1562 14.8214 36C14.0323 35.8516 13.3409 35.6211 12.7471 35.3086V32.1797C13.3409 32.4922 14.0518 32.7578 14.88 32.9766C15.7159 33.1875 16.5011 33.293 17.2354 33.293C17.9542 33.293 18.5596 33.1992 19.0518 33.0117C19.544 32.8164 19.9151 32.5195 20.1651 32.1211C20.4229 31.7148 20.5518 31.1992 20.5518 30.5742C20.5518 29.7383 20.2706 29.0977 19.7081 28.6523C19.1456 28.207 18.2823 27.9844 17.1182 27.9844C16.6729 27.9844 16.2081 28.0273 15.7237 28.1133C15.2471 28.1992 14.8487 28.2852 14.5284 28.3711L13.087 27.5977L13.7315 18.8672H23.0245V21.9375H16.9073L16.5909 25.3008C16.8565 25.2461 17.1456 25.1914 17.4581 25.1367C17.7706 25.082 18.2081 25.0547 18.7706 25.0547Z" fill="white"/>
<path d="M31.2736 22.4336L28.0802 31H26.4572L29.6505 22.4336H31.2736ZM36.2892 31H34.4786V26.043C34.4786 25.9062 34.4806 25.7383 34.4845 25.5391C34.4884 25.3359 34.4943 25.1289 34.5021 24.918C34.5099 24.7031 34.5177 24.5098 34.5255 24.3379C34.4825 24.3887 34.3947 24.4766 34.2618 24.6016C34.1329 24.7227 34.0118 24.832 33.8986 24.9297L32.9142 25.7207L32.0411 24.6309L34.8009 22.4336H36.2892V31ZM44.6212 26.7168C44.6212 27.4082 44.5665 28.0254 44.4572 28.5684C44.3517 29.1113 44.1798 29.5723 43.9415 29.9512C43.7072 30.3301 43.3986 30.6191 43.0157 30.8184C42.6329 31.0176 42.1681 31.1172 41.6212 31.1172C40.9337 31.1172 40.3693 30.9434 39.9279 30.5957C39.4865 30.2441 39.1603 29.7402 38.9493 29.084C38.7384 28.4238 38.6329 27.6348 38.6329 26.7168C38.6329 25.791 38.7286 25 38.92 24.3438C39.1154 23.6836 39.4318 23.1777 39.8693 22.8262C40.3068 22.4746 40.8907 22.2988 41.6212 22.2988C42.3048 22.2988 42.8673 22.4746 43.3087 22.8262C43.754 23.1738 44.0841 23.6777 44.299 24.3379C44.5138 24.9941 44.6212 25.7871 44.6212 26.7168ZM40.4318 26.7168C40.4318 27.3691 40.4669 27.9141 40.5372 28.3516C40.6115 28.7852 40.7345 29.1113 40.9064 29.3301C41.0782 29.5488 41.3165 29.6582 41.6212 29.6582C41.922 29.6582 42.1583 29.5508 42.3302 29.3359C42.506 29.1172 42.631 28.791 42.7052 28.3574C42.7794 27.9199 42.8165 27.373 42.8165 26.7168C42.8165 26.0645 42.7794 25.5195 42.7052 25.082C42.631 24.6445 42.506 24.3164 42.3302 24.0977C42.1583 23.875 41.922 23.7637 41.6212 23.7637C41.3165 23.7637 41.0782 23.875 40.9064 24.0977C40.7345 24.3164 40.6115 24.6445 40.5372 25.082C40.4669 25.5195 40.4318 26.0645 40.4318 26.7168Z" fill="#CBD5E1"/>
</svg>
