<svg width="55" height="55" viewBox="0 0 55 55" fill="none" xmlns="http://www.w3.org/2000/svg">
<circle cx="27.5" cy="27.5" r="27.5" fill="#00774F"/>
<path d="M12.419 28.7227C12.419 27.7383 12.4893 26.7656 12.63 25.8047C12.7784 24.8359 13.0323 23.9258 13.3917 23.0742C13.7511 22.2148 14.255 21.457 14.9034 20.8008C15.5518 20.1367 16.3761 19.6172 17.3761 19.2422C18.3761 18.8594 19.587 18.668 21.0089 18.668C21.3448 18.668 21.7354 18.6836 22.1807 18.7148C22.6339 18.7383 23.0089 18.7812 23.3057 18.8438V21.7383C22.9932 21.668 22.6573 21.6133 22.2979 21.5742C21.9464 21.5273 21.5948 21.5039 21.2432 21.5039C19.8214 21.5039 18.7198 21.7305 17.9386 22.1836C17.1651 22.6367 16.6182 23.2656 16.2979 24.0703C15.9854 24.8672 15.8018 25.7969 15.7471 26.8594H15.8995C16.1182 26.4766 16.3917 26.1367 16.7198 25.8398C17.0557 25.543 17.462 25.3086 17.9386 25.1367C18.4151 24.957 18.9737 24.8672 19.6143 24.8672C20.6143 24.8672 21.4815 25.082 22.2159 25.5117C22.9503 25.9336 23.5167 26.5469 23.9151 27.3516C24.3136 28.1562 24.5128 29.1367 24.5128 30.293C24.5128 31.5273 24.2745 32.5898 23.7979 33.4805C23.3214 34.3711 22.6456 35.0547 21.7706 35.5312C20.9034 36 19.8721 36.2344 18.6768 36.2344C17.8018 36.2344 16.9854 36.0859 16.2276 35.7891C15.4698 35.4844 14.8057 35.0234 14.2354 34.4062C13.6651 33.7891 13.2198 33.0117 12.8995 32.0742C12.5792 31.1289 12.419 30.0117 12.419 28.7227ZM18.6065 33.3398C19.3175 33.3398 19.8956 33.0977 20.3409 32.6133C20.7862 32.1289 21.0089 31.3711 21.0089 30.3398C21.0089 29.5039 20.8136 28.8477 20.4229 28.3711C20.0401 27.8867 19.4581 27.6445 18.6768 27.6445C18.1456 27.6445 17.6768 27.7656 17.2706 28.0078C16.8721 28.2422 16.5636 28.543 16.3448 28.9102C16.1261 29.2695 16.0167 29.6406 16.0167 30.0234C16.0167 30.4219 16.0714 30.8164 16.1807 31.207C16.2901 31.5977 16.4542 31.9531 16.6729 32.2734C16.8917 32.5938 17.1612 32.8516 17.4815 33.0469C17.8096 33.2422 18.1846 33.3398 18.6065 33.3398Z" fill="white"/>
<path d="M31.2736 22.4336L28.0802 31H26.4572L29.6505 22.4336H31.2736ZM36.2892 31H34.4786V26.043C34.4786 25.9062 34.4806 25.7383 34.4845 25.5391C34.4884 25.3359 34.4943 25.1289 34.5021 24.918C34.5099 24.7031 34.5177 24.5098 34.5255 24.3379C34.4825 24.3887 34.3947 24.4766 34.2618 24.6016C34.1329 24.7227 34.0118 24.832 33.8986 24.9297L32.9142 25.7207L32.0411 24.6309L34.8009 22.4336H36.2892V31ZM44.6212 26.7168C44.6212 27.4082 44.5665 28.0254 44.4572 28.5684C44.3517 29.1113 44.1798 29.5723 43.9415 29.9512C43.7072 30.3301 43.3986 30.6191 43.0157 30.8184C42.6329 31.0176 42.1681 31.1172 41.6212 31.1172C40.9337 31.1172 40.3693 30.9434 39.9279 30.5957C39.4865 30.2441 39.1603 29.7402 38.9493 29.084C38.7384 28.4238 38.6329 27.6348 38.6329 26.7168C38.6329 25.791 38.7286 25 38.92 24.3438C39.1154 23.6836 39.4318 23.1777 39.8693 22.8262C40.3068 22.4746 40.8907 22.2988 41.6212 22.2988C42.3048 22.2988 42.8673 22.4746 43.3087 22.8262C43.754 23.1738 44.0841 23.6777 44.299 24.3379C44.5138 24.9941 44.6212 25.7871 44.6212 26.7168ZM40.4318 26.7168C40.4318 27.3691 40.4669 27.9141 40.5372 28.3516C40.6115 28.7852 40.7345 29.1113 40.9064 29.3301C41.0782 29.5488 41.3165 29.6582 41.6212 29.6582C41.922 29.6582 42.1583 29.5508 42.3302 29.3359C42.506 29.1172 42.631 28.791 42.7052 28.3574C42.7794 27.9199 42.8165 27.373 42.8165 26.7168C42.8165 26.0645 42.7794 25.5195 42.7052 25.082C42.631 24.6445 42.506 24.3164 42.3302 24.0977C42.1583 23.875 41.922 23.7637 41.6212 23.7637C41.3165 23.7637 41.0782 23.875 40.9064 24.0977C40.7345 24.3164 40.6115 24.6445 40.5372 25.082C40.4669 25.5195 40.4318 26.0645 40.4318 26.7168Z" fill="#CBD5E1"/>
</svg>
