<svg width="36" height="36" viewBox="0 0 36 36" fill="none" xmlns="http://www.w3.org/2000/svg">
<circle cx="18" cy="18" r="18" fill="#00875D"/>
<path d="M14.0518 15.0244C14.0518 15.6162 13.9287 16.1289 13.6826 16.5625C13.4365 16.9961 13.1025 17.3506 12.6807 17.626C12.2646 17.9014 11.7959 18.1035 11.2744 18.2324V18.2852C12.3057 18.4141 13.0879 18.7305 13.6211 19.2344C14.1602 19.7383 14.4297 20.4121 14.4297 21.2559C14.4297 22.0059 14.2451 22.6768 13.876 23.2686C13.5127 23.8604 12.9502 24.3262 12.1885 24.666C11.4268 25.0059 10.4453 25.1758 9.24414 25.1758C8.53516 25.1758 7.87305 25.1172 7.25781 25C6.64844 24.8887 6.07422 24.7158 5.53516 24.4814V22.1699C6.08594 22.4512 6.66309 22.665 7.2666 22.8115C7.87012 22.9521 8.43262 23.0225 8.9541 23.0225C9.92676 23.0225 10.6064 22.8555 10.9932 22.5215C11.3857 22.1816 11.582 21.707 11.582 21.0977C11.582 20.7402 11.4912 20.4385 11.3096 20.1924C11.1279 19.9463 10.8115 19.7588 10.3604 19.6299C9.91504 19.501 9.29102 19.4365 8.48828 19.4365H7.5127V17.3535H8.50586C9.29688 17.3535 9.89746 17.2803 10.3076 17.1338C10.7236 16.9814 11.0049 16.7764 11.1514 16.5186C11.3037 16.2549 11.3799 15.9561 11.3799 15.6221C11.3799 15.165 11.2393 14.8076 10.958 14.5498C10.6768 14.292 10.208 14.1631 9.55176 14.1631C9.1416 14.1631 8.7666 14.2158 8.42676 14.3213C8.09277 14.4209 7.79102 14.5439 7.52148 14.6904C7.25195 14.8311 7.01465 14.9688 6.80957 15.1035L5.55273 13.2314C6.05664 12.8682 6.64551 12.5664 7.31934 12.3262C7.99902 12.0859 8.80762 11.9658 9.74512 11.9658C11.0693 11.9658 12.1182 12.2324 12.8916 12.7656C13.665 13.2988 14.0518 14.0518 14.0518 15.0244Z" fill="white"/>
<path d="M19.582 14.8613L16.9209 22H15.5684L18.2295 14.8613H19.582ZM23.7617 22H22.2529V17.8691C22.2529 17.7552 22.2546 17.6152 22.2578 17.4492C22.2611 17.2799 22.266 17.1074 22.2725 16.9316C22.279 16.7526 22.2855 16.5915 22.292 16.4482C22.2562 16.4906 22.1829 16.5638 22.0723 16.668C21.9648 16.7689 21.8639 16.86 21.7695 16.9414L20.9492 17.6006L20.2217 16.6924L22.5215 14.8613H23.7617V22ZM30.7051 18.4307C30.7051 19.0068 30.6595 19.5212 30.5684 19.9736C30.4805 20.4261 30.3372 20.8102 30.1387 21.126C29.9434 21.4417 29.6862 21.6826 29.3672 21.8486C29.0482 22.0146 28.6608 22.0977 28.2051 22.0977C27.6322 22.0977 27.1618 21.9528 26.7939 21.6631C26.4261 21.3701 26.1543 20.9502 25.9785 20.4033C25.8027 19.8532 25.7148 19.1956 25.7148 18.4307C25.7148 17.6592 25.7946 17 25.9541 16.4531C26.1169 15.903 26.3805 15.4814 26.7451 15.1885C27.1097 14.8955 27.5964 14.749 28.2051 14.749C28.7747 14.749 29.2435 14.8955 29.6113 15.1885C29.9824 15.4782 30.2575 15.8981 30.4365 16.4482C30.6156 16.9951 30.7051 17.6559 30.7051 18.4307ZM27.2139 18.4307C27.2139 18.9743 27.2432 19.4284 27.3018 19.793C27.3636 20.1543 27.4661 20.4261 27.6094 20.6084C27.7526 20.7907 27.9512 20.8818 28.2051 20.8818C28.4557 20.8818 28.6527 20.7923 28.7959 20.6133C28.9424 20.431 29.0465 20.1592 29.1084 19.7979C29.1702 19.4333 29.2012 18.9775 29.2012 18.4307C29.2012 17.887 29.1702 17.4329 29.1084 17.0684C29.0465 16.7038 28.9424 16.4303 28.7959 16.248C28.6527 16.0625 28.4557 15.9697 28.2051 15.9697C27.9512 15.9697 27.7526 16.0625 27.6094 16.248C27.4661 16.4303 27.3636 16.7038 27.3018 17.0684C27.2432 17.4329 27.2139 17.887 27.2139 18.4307Z" fill="#CBD5E1"/>
</svg>
