<svg width="24" height="24" viewBox="0 0 24 24" fill="none" xmlns="http://www.w3.org/2000/svg">
<circle cx="12" cy="12" r="12" fill="#00774F"/>
<path d="M12.0205 11.252C12.6631 11.252 13.2282 11.3682 13.7158 11.6006C14.208 11.8285 14.5908 12.1657 14.8643 12.6123C15.1377 13.0544 15.2744 13.5967 15.2744 14.2393C15.2744 14.9411 15.1263 15.5472 14.8301 16.0576C14.5339 16.5635 14.0986 16.9531 13.5244 17.2266C12.9502 17.5 12.2507 17.6367 11.4258 17.6367C10.9017 17.6367 10.4118 17.5911 9.95605 17.5C9.50488 17.4089 9.11523 17.2721 8.78711 17.0898V15.6406C9.12891 15.832 9.53906 15.9893 10.0176 16.1123C10.4961 16.2308 10.9541 16.29 11.3916 16.29C11.8564 16.29 12.2552 16.2217 12.5879 16.085C12.9206 15.9482 13.1758 15.7386 13.3535 15.4561C13.5358 15.1735 13.627 14.8158 13.627 14.3828C13.627 13.8086 13.4424 13.3665 13.0732 13.0566C12.7087 12.7422 12.1367 12.585 11.3574 12.585C11.084 12.585 10.7923 12.61 10.4824 12.6602C10.1771 12.7057 9.92188 12.7559 9.7168 12.8105L9.0127 12.3936L9.38867 7.50586H14.584V8.9209H10.8037L10.585 11.4092C10.749 11.3727 10.945 11.3385 11.1729 11.3066C11.4007 11.2702 11.6833 11.252 12.0205 11.252Z" fill="white"/>
</svg>
