<svg width="55" height="55" viewBox="0 0 55 55" fill="none" xmlns="http://www.w3.org/2000/svg">
<circle cx="27.5" cy="27.5" r="27.5" fill="#006742"/>
<path d="M18.4425 18.6445C19.4268 18.6445 20.3331 18.7969 21.1612 19.1016C21.9971 19.4062 22.6651 19.8672 23.1651 20.4844C23.6651 21.0938 23.9151 21.8594 23.9151 22.7812C23.9151 23.4688 23.7784 24.0703 23.505 24.5859C23.2393 25.1016 22.8761 25.5547 22.4151 25.9453C21.9542 26.3281 21.4307 26.6641 20.8448 26.9531C21.4542 27.2734 22.0323 27.6484 22.5792 28.0781C23.1261 28.5 23.5714 28.9961 23.9151 29.5664C24.2667 30.1367 24.4425 30.8008 24.4425 31.5586C24.4425 32.5117 24.1886 33.3398 23.6807 34.043C23.1729 34.7383 22.4698 35.2773 21.5714 35.6602C20.6729 36.043 19.63 36.2344 18.4425 36.2344C17.1612 36.2344 16.0714 36.0508 15.1729 35.6836C14.2745 35.3164 13.5909 34.793 13.1221 34.1133C12.6534 33.4258 12.419 32.6055 12.419 31.6523C12.419 30.8711 12.5636 30.1914 12.8526 29.6133C13.1495 29.0352 13.5479 28.5391 14.0479 28.125C14.5479 27.7031 15.0987 27.3438 15.7003 27.0469C15.1925 26.7266 14.7276 26.3633 14.3057 25.957C13.8917 25.5508 13.5596 25.0859 13.3096 24.5625C13.0675 24.0391 12.9464 23.4375 12.9464 22.7578C12.9464 21.8516 13.2003 21.0938 13.7081 20.4844C14.2237 19.875 14.8995 19.418 15.7354 19.1133C16.5714 18.8008 17.4737 18.6445 18.4425 18.6445ZM15.7706 31.4414C15.7706 32.0586 15.9893 32.5703 16.4268 32.9766C16.8721 33.375 17.5284 33.5742 18.3956 33.5742C19.294 33.5742 19.9659 33.3828 20.4112 33C20.8565 32.6094 21.0792 32.0977 21.0792 31.4648C21.0792 31.0273 20.9503 30.6445 20.6925 30.3164C20.4425 29.9883 20.1261 29.6953 19.7432 29.4375C19.3604 29.1719 18.9737 28.9258 18.5831 28.6992L18.2667 28.5352C17.7667 28.7617 17.3292 29.0156 16.9542 29.2969C16.587 29.5781 16.2979 29.8945 16.087 30.2461C15.8761 30.5977 15.7706 30.9961 15.7706 31.4414ZM18.419 21.293C17.8253 21.293 17.3331 21.4453 16.9425 21.75C16.5518 22.0547 16.3565 22.4844 16.3565 23.0391C16.3565 23.4297 16.4503 23.7734 16.6378 24.0703C16.8331 24.3594 17.087 24.6133 17.3995 24.832C17.7198 25.0508 18.0675 25.2539 18.4425 25.4414C18.8018 25.2695 19.1378 25.0781 19.4503 24.8672C19.7628 24.6562 20.0167 24.4023 20.212 24.1055C20.4073 23.8086 20.505 23.4531 20.505 23.0391C20.505 22.4844 20.3057 22.0547 19.9073 21.75C19.5167 21.4453 19.0206 21.293 18.419 21.293Z" fill="white"/>
<path d="M31.2736 22.4336L28.0802 31H26.4572L29.6505 22.4336H31.2736ZM36.2892 31H34.4787V26.043C34.4787 25.9062 34.4806 25.7383 34.4845 25.5391C34.4884 25.3359 34.4943 25.1289 34.5021 24.918C34.5099 24.7031 34.5177 24.5098 34.5255 24.3379C34.4826 24.3887 34.3947 24.4766 34.2619 24.6016C34.133 24.7227 34.0119 24.832 33.8986 24.9297L32.9142 25.7207L32.0412 24.6309L34.8009 22.4336H36.2892V31ZM44.6212 26.7168C44.6212 27.4082 44.5666 28.0254 44.4572 28.5684C44.3517 29.1113 44.1798 29.5723 43.9416 29.9512C43.7072 30.3301 43.3986 30.6191 43.0158 30.8184C42.633 31.0176 42.1681 31.1172 41.6212 31.1172C40.9337 31.1172 40.3693 30.9434 39.9279 30.5957C39.4865 30.2441 39.1603 29.7402 38.9494 29.084C38.7384 28.4238 38.633 27.6348 38.633 26.7168C38.633 25.791 38.7287 25 38.9201 24.3438C39.1154 23.6836 39.4318 23.1777 39.8693 22.8262C40.3068 22.4746 40.8908 22.2988 41.6212 22.2988C42.3048 22.2988 42.8673 22.4746 43.3087 22.8262C43.7541 23.1738 44.0841 23.6777 44.299 24.3379C44.5138 24.9941 44.6212 25.7871 44.6212 26.7168ZM40.4318 26.7168C40.4318 27.3691 40.4669 27.9141 40.5373 28.3516C40.6115 28.7852 40.7345 29.1113 40.9064 29.3301C41.0783 29.5488 41.3166 29.6582 41.6212 29.6582C41.922 29.6582 42.1584 29.5508 42.3302 29.3359C42.506 29.1172 42.631 28.791 42.7052 28.3574C42.7794 27.9199 42.8166 27.373 42.8166 26.7168C42.8166 26.0645 42.7794 25.5195 42.7052 25.082C42.631 24.6445 42.506 24.3164 42.3302 24.0977C42.1584 23.875 41.922 23.7637 41.6212 23.7637C41.3166 23.7637 41.0783 23.875 40.9064 24.0977C40.7345 24.3164 40.6115 24.6445 40.5373 25.082C40.4669 25.5195 40.4318 26.0645 40.4318 26.7168Z" fill="#CBD5E1"/>
</svg>
