<svg width="36" height="36" viewBox="0 0 36 36" fill="none" xmlns="http://www.w3.org/2000/svg">
<circle cx="18" cy="18" r="18" fill="#00774F"/>
<path d="M5.48242 19.542C5.48242 18.8037 5.53516 18.0742 5.64062 17.3535C5.75195 16.627 5.94238 15.9443 6.21191 15.3057C6.48145 14.6611 6.85938 14.0928 7.3457 13.6006C7.83203 13.1025 8.4502 12.7129 9.2002 12.4316C9.9502 12.1445 10.8584 12.001 11.9248 12.001C12.1768 12.001 12.4697 12.0127 12.8037 12.0361C13.1436 12.0537 13.4248 12.0859 13.6475 12.1328V14.3037C13.4131 14.251 13.1611 14.21 12.8916 14.1807C12.6279 14.1455 12.3643 14.1279 12.1006 14.1279C11.0342 14.1279 10.208 14.2979 9.62207 14.6377C9.04199 14.9775 8.63184 15.4492 8.3916 16.0527C8.15723 16.6504 8.01953 17.3477 7.97852 18.1445H8.09277C8.25684 17.8574 8.46191 17.6025 8.70801 17.3799C8.95996 17.1572 9.26465 16.9814 9.62207 16.8525C9.97949 16.7178 10.3984 16.6504 10.8789 16.6504C11.6289 16.6504 12.2793 16.8115 12.8301 17.1338C13.3809 17.4502 13.8057 17.9102 14.1045 18.5137C14.4033 19.1172 14.5527 19.8525 14.5527 20.7197C14.5527 21.6455 14.374 22.4424 14.0166 23.1104C13.6592 23.7783 13.1523 24.291 12.4961 24.6484C11.8457 25 11.0723 25.1758 10.1758 25.1758C9.51953 25.1758 8.90723 25.0645 8.33887 24.8418C7.77051 24.6133 7.27246 24.2676 6.84473 23.8047C6.41699 23.3418 6.08301 22.7588 5.84277 22.0557C5.60254 21.3467 5.48242 20.5088 5.48242 19.542ZM10.123 23.0049C10.6562 23.0049 11.0898 22.8232 11.4238 22.46C11.7578 22.0967 11.9248 21.5283 11.9248 20.7549C11.9248 20.1279 11.7783 19.6357 11.4854 19.2783C11.1982 18.915 10.7617 18.7334 10.1758 18.7334C9.77734 18.7334 9.42578 18.8242 9.12109 19.0059C8.82227 19.1816 8.59082 19.4072 8.42676 19.6826C8.2627 19.9521 8.18066 20.2305 8.18066 20.5176C8.18066 20.8164 8.22168 21.1123 8.30371 21.4053C8.38574 21.6982 8.50879 21.9648 8.67285 22.2051C8.83691 22.4453 9.03906 22.6387 9.2793 22.7852C9.52539 22.9316 9.80664 23.0049 10.123 23.0049Z" fill="white"/>
<path d="M19.582 14.8613L16.9209 22H15.5684L18.2295 14.8613H19.582ZM23.7617 22H22.2529V17.8691C22.2529 17.7552 22.2546 17.6152 22.2578 17.4492C22.2611 17.2799 22.266 17.1074 22.2725 16.9316C22.279 16.7526 22.2855 16.5915 22.292 16.4482C22.2562 16.4906 22.1829 16.5638 22.0723 16.668C21.9648 16.7689 21.8639 16.86 21.7695 16.9414L20.9492 17.6006L20.2217 16.6924L22.5215 14.8613H23.7617V22ZM30.7051 18.4307C30.7051 19.0068 30.6595 19.5212 30.5684 19.9736C30.4805 20.4261 30.3372 20.8102 30.1387 21.126C29.9434 21.4417 29.6862 21.6826 29.3672 21.8486C29.0482 22.0146 28.6608 22.0977 28.2051 22.0977C27.6322 22.0977 27.1618 21.9528 26.7939 21.6631C26.4261 21.3701 26.1543 20.9502 25.9785 20.4033C25.8027 19.8532 25.7148 19.1956 25.7148 18.4307C25.7148 17.6592 25.7946 17 25.9541 16.4531C26.1169 15.903 26.3805 15.4814 26.7451 15.1885C27.1097 14.8955 27.5964 14.749 28.2051 14.749C28.7747 14.749 29.2435 14.8955 29.6113 15.1885C29.9824 15.4782 30.2575 15.8981 30.4365 16.4482C30.6156 16.9951 30.7051 17.6559 30.7051 18.4307ZM27.2139 18.4307C27.2139 18.9743 27.2432 19.4284 27.3018 19.793C27.3636 20.1543 27.4661 20.4261 27.6094 20.6084C27.7526 20.7907 27.9512 20.8818 28.2051 20.8818C28.4557 20.8818 28.6527 20.7923 28.7959 20.6133C28.9424 20.431 29.0465 20.1592 29.1084 19.7979C29.1702 19.4333 29.2012 18.9775 29.2012 18.4307C29.2012 17.887 29.1702 17.4329 29.1084 17.0684C29.0465 16.7038 28.9424 16.4303 28.7959 16.248C28.6527 16.0625 28.4557 15.9697 28.2051 15.9697C27.9512 15.9697 27.7526 16.0625 27.6094 16.248C27.4661 16.4303 27.3636 16.7038 27.3018 17.0684C27.2432 17.4329 27.2139 17.887 27.2139 18.4307Z" fill="#CBD5E1"/>
</svg>
