<svg width="55" height="55" viewBox="0 0 55 55" fill="none" xmlns="http://www.w3.org/2000/svg">
<circle cx="27.5" cy="27.5" r="27.5" fill="#475569"/>
<circle cx="27.5" cy="27.5" r="27.5" stroke="#E2E8F0"/>
<path d="M27.2511 36.0192H22.6339L15.1807 23.0583H15.0753C15.1065 23.5974 15.1339 24.1403 15.1573 24.6872C15.1807 25.2341 15.2042 25.781 15.2276 26.3278C15.2511 26.8669 15.2745 27.4099 15.2979 27.9567V36.0192H12.0518V18.8864H16.6339L24.0753 31.7185H24.1573C24.1417 31.1872 24.1221 30.6599 24.0987 30.1364C24.0753 29.613 24.0518 29.0895 24.0284 28.5661C24.0128 28.0427 23.9971 27.5192 23.9815 26.9958V18.8864H27.2511V36.0192ZM42.0636 36.0192L40.8214 31.9411H34.5753L33.3331 36.0192H29.419L35.4659 18.8161H39.9073L45.9776 36.0192H42.0636ZM39.9542 28.8942L38.712 24.9099C38.6339 24.6442 38.5284 24.3044 38.3956 23.8903C38.2706 23.4685 38.1417 23.0427 38.0089 22.613C37.8839 22.1755 37.7823 21.7966 37.7042 21.4763C37.6261 21.7966 37.5167 22.195 37.3761 22.6716C37.2432 23.1403 37.1143 23.5856 36.9893 24.0075C36.8643 24.4294 36.7745 24.7302 36.7198 24.9099L35.4893 28.8942H39.9542Z" fill="white"/>
</svg>
