<svg width="24" height="24" viewBox="0 0 24 24" fill="none" xmlns="http://www.w3.org/2000/svg">
<circle cx="12" cy="12" r="12" fill="#029468"/>
<path d="M15.3906 17H8.62305V15.79L11.2139 13.165C11.7152 12.6546 12.1276 12.2148 12.4512 11.8457C12.7747 11.472 13.014 11.1188 13.1689 10.7861C13.3285 10.4535 13.4082 10.0911 13.4082 9.69922C13.4082 9.21615 13.2692 8.85156 12.9912 8.60547C12.7132 8.35482 12.3464 8.22949 11.8906 8.22949C11.4577 8.22949 11.0566 8.31608 10.6875 8.48926C10.3229 8.65788 9.94466 8.89941 9.55273 9.21387L8.6709 8.1543C8.94889 7.91732 9.24512 7.70085 9.55957 7.50488C9.87858 7.30892 10.234 7.15397 10.626 7.04004C11.0179 6.92155 11.4645 6.8623 11.9658 6.8623C12.5993 6.8623 13.1462 6.97624 13.6064 7.2041C14.0667 7.42741 14.4199 7.73958 14.666 8.14062C14.9167 8.54167 15.042 9.00879 15.042 9.54199C15.042 10.0798 14.9349 10.5765 14.7207 11.0322C14.5065 11.488 14.2012 11.9391 13.8047 12.3857C13.4082 12.8278 12.9365 13.3086 12.3896 13.8281L10.6602 15.5166V15.5918H15.3906V17Z" fill="white"/>
</svg>
