<svg width="55" height="55" viewBox="0 0 55 55" fill="none" xmlns="http://www.w3.org/2000/svg">
<circle cx="27.5" cy="27.5" r="27.5" fill="#029468"/>
<path d="M24.5128 36H12.5362V33.4805L16.837 29.1328C17.7042 28.2422 18.3995 27.5 18.9229 26.9062C19.4542 26.3047 19.837 25.7578 20.0714 25.2656C20.3136 24.7734 20.4346 24.2461 20.4346 23.6836C20.4346 23.0039 20.2432 22.4961 19.8604 22.1602C19.4854 21.8164 18.9815 21.6445 18.3487 21.6445C17.6846 21.6445 17.0401 21.7969 16.4151 22.1016C15.7901 22.4062 15.1378 22.8398 14.4581 23.4023L12.4893 21.0703C12.9815 20.6484 13.5011 20.25 14.0479 19.875C14.6026 19.5 15.2432 19.1992 15.9698 18.9727C16.7042 18.7383 17.5831 18.6211 18.6065 18.6211C19.7315 18.6211 20.6964 18.8242 21.5011 19.2305C22.3136 19.6367 22.9386 20.1914 23.3761 20.8945C23.8136 21.5898 24.0323 22.3789 24.0323 23.2617C24.0323 24.207 23.8448 25.0703 23.4698 25.8516C23.0948 26.6328 22.5479 27.4062 21.8292 28.1719C21.1182 28.9375 20.2589 29.7852 19.2511 30.7148L17.0479 32.7891V32.9531H24.5128V36Z" fill="white"/>
<path d="M31.2736 22.4336L28.0802 31H26.4572L29.6505 22.4336H31.2736ZM36.2892 31H34.4786V26.043C34.4786 25.9062 34.4806 25.7383 34.4845 25.5391C34.4884 25.3359 34.4943 25.1289 34.5021 24.918C34.5099 24.7031 34.5177 24.5098 34.5255 24.3379C34.4825 24.3887 34.3947 24.4766 34.2618 24.6016C34.1329 24.7227 34.0118 24.832 33.8986 24.9297L32.9142 25.7207L32.0411 24.6309L34.8009 22.4336H36.2892V31ZM44.6212 26.7168C44.6212 27.4082 44.5665 28.0254 44.4572 28.5684C44.3517 29.1113 44.1798 29.5723 43.9415 29.9512C43.7072 30.3301 43.3986 30.6191 43.0157 30.8184C42.6329 31.0176 42.1681 31.1172 41.6212 31.1172C40.9337 31.1172 40.3693 30.9434 39.9279 30.5957C39.4865 30.2441 39.1603 29.7402 38.9493 29.084C38.7384 28.4238 38.6329 27.6348 38.6329 26.7168C38.6329 25.791 38.7286 25 38.92 24.3438C39.1154 23.6836 39.4318 23.1777 39.8693 22.8262C40.3068 22.4746 40.8907 22.2988 41.6212 22.2988C42.3048 22.2988 42.8673 22.4746 43.3087 22.8262C43.754 23.1738 44.0841 23.6777 44.299 24.3379C44.5138 24.9941 44.6212 25.7871 44.6212 26.7168ZM40.4318 26.7168C40.4318 27.3691 40.4669 27.9141 40.5372 28.3516C40.6115 28.7852 40.7345 29.1113 40.9064 29.3301C41.0782 29.5488 41.3165 29.6582 41.6212 29.6582C41.922 29.6582 42.1583 29.5508 42.3302 29.3359C42.506 29.1172 42.631 28.791 42.7052 28.3574C42.7794 27.9199 42.8165 27.373 42.8165 26.7168C42.8165 26.0645 42.7794 25.5195 42.7052 25.082C42.631 24.6445 42.506 24.3164 42.3302 24.0977C42.1583 23.875 41.922 23.7637 41.6212 23.7637C41.3165 23.7637 41.0782 23.875 40.9064 24.0977C40.7345 24.3164 40.6115 24.6445 40.5372 25.082C40.4669 25.5195 40.4318 26.0645 40.4318 26.7168Z" fill="#CBD5E1"/>
</svg>
