<svg width="24" height="24" viewBox="0 0 24 24" fill="none" xmlns="http://www.w3.org/2000/svg">
<circle cx="12" cy="12" r="12" fill="#006742"/>
<path d="M11.9932 6.86914C12.5719 6.86914 13.0938 6.96029 13.5586 7.14258C14.0234 7.32031 14.3926 7.58691 14.666 7.94238C14.9395 8.29785 15.0762 8.73763 15.0762 9.26172C15.0762 9.66732 14.9919 10.0205 14.8232 10.3213C14.6592 10.6221 14.4359 10.8864 14.1533 11.1143C13.8708 11.3376 13.554 11.5358 13.2031 11.709C13.5951 11.9004 13.9551 12.1214 14.2832 12.3721C14.6159 12.6182 14.8825 12.9076 15.083 13.2402C15.2881 13.5729 15.3906 13.9626 15.3906 14.4092C15.3906 14.9697 15.2471 15.4551 14.96 15.8652C14.6774 16.2708 14.2832 16.5853 13.7773 16.8086C13.2715 17.0273 12.6813 17.1367 12.0068 17.1367C11.2822 17.1367 10.6647 17.0296 10.1543 16.8154C9.64388 16.6012 9.25651 16.2959 8.99219 15.8994C8.72786 15.4984 8.5957 15.0199 8.5957 14.4639C8.5957 14.0036 8.68685 13.6048 8.86914 13.2676C9.05143 12.9303 9.29525 12.6387 9.60059 12.3926C9.91048 12.1465 10.25 11.9391 10.6191 11.7705C10.3047 11.5837 10.0176 11.374 9.75781 11.1416C9.49805 10.9046 9.29069 10.6335 9.13574 10.3281C8.98535 10.0182 8.91016 9.66048 8.91016 9.25488C8.91016 8.73535 9.04915 8.30013 9.32715 7.94922C9.60514 7.59375 9.97656 7.32487 10.4414 7.14258C10.9108 6.96029 11.4281 6.86914 11.9932 6.86914ZM10.127 14.4023C10.127 14.8398 10.2819 15.1999 10.5918 15.4824C10.9017 15.765 11.3643 15.9062 11.9795 15.9062C12.5902 15.9062 13.055 15.7673 13.374 15.4893C13.693 15.2113 13.8525 14.8444 13.8525 14.3887C13.8525 14.097 13.7705 13.8395 13.6064 13.6162C13.4469 13.3929 13.2305 13.1947 12.957 13.0215C12.6882 12.8438 12.3896 12.6797 12.0615 12.5293L11.8428 12.4404C11.4873 12.5908 11.182 12.7617 10.9268 12.9531C10.6715 13.14 10.4733 13.3519 10.332 13.5889C10.1953 13.8258 10.127 14.097 10.127 14.4023ZM11.9795 8.10645C11.5374 8.10645 11.1729 8.21582 10.8857 8.43457C10.6032 8.64876 10.4619 8.95866 10.4619 9.36426C10.4619 9.65137 10.5303 9.89746 10.667 10.1025C10.8083 10.3076 10.9974 10.4854 11.2344 10.6357C11.4714 10.7816 11.7334 10.9183 12.0205 11.0459C12.2985 10.9229 12.5492 10.7884 12.7725 10.6426C13.0003 10.4922 13.1803 10.3145 13.3125 10.1094C13.4492 9.89974 13.5176 9.64909 13.5176 9.35742C13.5176 8.95638 13.374 8.64876 13.0869 8.43457C12.8044 8.21582 12.4352 8.10645 11.9795 8.10645Z" fill="white"/>
</svg>
