<svg width="24" height="24" viewBox="0 0 24 24" fill="none" xmlns="http://www.w3.org/2000/svg">
<circle cx="12" cy="12" r="12" fill="#004C27"/>
<path d="M15.377 11.2646C15.377 11.8571 15.3337 12.4382 15.2471 13.0078C15.165 13.5775 15.0192 14.1107 14.8096 14.6074C14.6045 15.1042 14.3197 15.5439 13.9551 15.9268C13.5951 16.305 13.1393 16.6012 12.5879 16.8154C12.0365 17.0296 11.3711 17.1367 10.5918 17.1367C10.3958 17.1367 10.168 17.1253 9.9082 17.1025C9.65299 17.0843 9.44336 17.057 9.2793 17.0205V15.6807C9.45247 15.7308 9.64616 15.7718 9.86035 15.8037C10.0791 15.8311 10.2956 15.8447 10.5098 15.8447C11.3529 15.8447 12.0091 15.6875 12.4785 15.373C12.9525 15.0586 13.2874 14.6257 13.4834 14.0742C13.6839 13.5228 13.7979 12.8962 13.8252 12.1943H13.7432C13.611 12.4131 13.4447 12.6136 13.2441 12.7959C13.0436 12.9736 12.7952 13.1172 12.499 13.2266C12.2028 13.3314 11.8428 13.3838 11.4189 13.3838C10.8447 13.3838 10.3434 13.263 9.91504 13.0215C9.49121 12.7799 9.16081 12.429 8.92383 11.9688C8.69141 11.5039 8.5752 10.9456 8.5752 10.2939C8.5752 9.58757 8.70964 8.97917 8.97852 8.46875C9.2474 7.95833 9.62793 7.56641 10.1201 7.29297C10.6123 7.01497 11.1911 6.87598 11.8564 6.87598C12.3577 6.87598 12.8203 6.96712 13.2441 7.14941C13.6725 7.32715 14.0462 7.60059 14.3652 7.96973C14.6842 8.33431 14.9326 8.79232 15.1104 9.34375C15.2881 9.89062 15.377 10.5309 15.377 11.2646ZM11.877 8.20215C11.3711 8.20215 10.9587 8.37305 10.6396 8.71484C10.3206 9.05208 10.1611 9.57161 10.1611 10.2734C10.1611 10.8431 10.2979 11.2943 10.5713 11.627C10.8447 11.9596 11.264 12.126 11.8291 12.126C12.221 12.126 12.5583 12.0462 12.8408 11.8867C13.1279 11.7227 13.349 11.5153 13.5039 11.2646C13.6634 11.014 13.7432 10.7588 13.7432 10.499C13.7432 10.2301 13.7044 9.96126 13.627 9.69238C13.554 9.4235 13.4401 9.17741 13.2852 8.9541C13.1302 8.73079 12.9342 8.55078 12.6973 8.41406C12.4648 8.27279 12.1914 8.20215 11.877 8.20215Z" fill="white"/>
</svg>
