<svg width="55" height="55" viewBox="0 0 55 55" fill="none" xmlns="http://www.w3.org/2000/svg">
<circle cx="27.5" cy="27.5" r="27.5" fill="#004C27"/>
<path d="M24.4425 26.1797C24.4425 27.1641 24.3682 28.1406 24.2198 29.1094C24.0792 30.0781 23.8292 30.9922 23.4698 31.8516C23.1104 32.7031 22.6065 33.4609 21.9581 34.125C21.3096 34.7812 20.4854 35.2969 19.4854 35.6719C18.4854 36.0469 17.2745 36.2344 15.8526 36.2344C15.5167 36.2344 15.1221 36.2188 14.669 36.1875C14.2159 36.1641 13.8409 36.125 13.544 36.0703V33.1641C13.8565 33.2422 14.1886 33.3047 14.5401 33.3516C14.8917 33.3906 15.2471 33.4102 15.6065 33.4102C17.0362 33.4102 18.1378 33.1836 18.9112 32.7305C19.6925 32.2773 20.2393 31.6484 20.5518 30.8438C20.8721 30.0391 21.0557 29.1094 21.1026 28.0547H20.962C20.7354 28.4297 20.4659 28.7695 20.1534 29.0742C19.8487 29.3711 19.4581 29.6094 18.9815 29.7891C18.505 29.9609 17.8995 30.0469 17.1651 30.0469C16.1886 30.0469 15.337 29.8359 14.6104 29.4141C13.8917 28.9844 13.3331 28.3672 12.9346 27.5625C12.544 26.75 12.3487 25.7695 12.3487 24.6211C12.3487 23.3789 12.5831 22.3164 13.0518 21.4336C13.5284 20.543 14.2042 19.8594 15.0792 19.3828C15.9542 18.9062 16.9854 18.668 18.1729 18.668C19.0479 18.668 19.8643 18.8203 20.6221 19.125C21.38 19.4219 22.044 19.8789 22.6143 20.4961C23.1925 21.1133 23.6417 21.8945 23.962 22.8398C24.2823 23.7852 24.4425 24.8984 24.4425 26.1797ZM18.2432 21.5742C17.5401 21.5742 16.9659 21.8164 16.5206 22.3008C16.0753 22.7852 15.8526 23.543 15.8526 24.5742C15.8526 25.4023 16.044 26.0586 16.4268 26.543C16.8096 27.0273 17.3917 27.2695 18.1729 27.2695C18.712 27.2695 19.1807 27.1523 19.5792 26.918C19.9776 26.6758 20.2862 26.375 20.505 26.0156C20.7315 25.6484 20.8448 25.2734 20.8448 24.8906C20.8448 24.4922 20.7901 24.0977 20.6807 23.707C20.5714 23.3164 20.4073 22.9609 20.1886 22.6406C19.9698 22.3203 19.6964 22.0625 19.3682 21.8672C19.0479 21.6719 18.6729 21.5742 18.2432 21.5742Z" fill="white"/>
<path d="M31.2736 22.4336L28.0802 31H26.4572L29.6505 22.4336H31.2736ZM36.2892 31H34.4787V26.043C34.4787 25.9062 34.4806 25.7383 34.4845 25.5391C34.4884 25.3359 34.4943 25.1289 34.5021 24.918C34.5099 24.7031 34.5177 24.5098 34.5255 24.3379C34.4826 24.3887 34.3947 24.4766 34.2619 24.6016C34.133 24.7227 34.0119 24.832 33.8986 24.9297L32.9142 25.7207L32.0412 24.6309L34.8009 22.4336H36.2892V31ZM44.6212 26.7168C44.6212 27.4082 44.5666 28.0254 44.4572 28.5684C44.3517 29.1113 44.1798 29.5723 43.9416 29.9512C43.7072 30.3301 43.3986 30.6191 43.0158 30.8184C42.633 31.0176 42.1681 31.1172 41.6212 31.1172C40.9337 31.1172 40.3693 30.9434 39.9279 30.5957C39.4865 30.2441 39.1603 29.7402 38.9494 29.084C38.7384 28.4238 38.633 27.6348 38.633 26.7168C38.633 25.791 38.7287 25 38.9201 24.3438C39.1154 23.6836 39.4318 23.1777 39.8693 22.8262C40.3068 22.4746 40.8908 22.2988 41.6212 22.2988C42.3048 22.2988 42.8673 22.4746 43.3087 22.8262C43.7541 23.1738 44.0841 23.6777 44.299 24.3379C44.5138 24.9941 44.6212 25.7871 44.6212 26.7168ZM40.4318 26.7168C40.4318 27.3691 40.4669 27.9141 40.5373 28.3516C40.6115 28.7852 40.7345 29.1113 40.9064 29.3301C41.0783 29.5488 41.3166 29.6582 41.6212 29.6582C41.922 29.6582 42.1584 29.5508 42.3302 29.3359C42.506 29.1172 42.631 28.791 42.7052 28.3574C42.7794 27.9199 42.8166 27.373 42.8166 26.7168C42.8166 26.0645 42.7794 25.5195 42.7052 25.082C42.631 24.6445 42.506 24.3164 42.3302 24.0977C42.1584 23.875 41.922 23.7637 41.6212 23.7637C41.3166 23.7637 41.0783 23.875 40.9064 24.0977C40.7345 24.3164 40.6115 24.6445 40.5373 25.082C40.4669 25.5195 40.4318 26.0645 40.4318 26.7168Z" fill="#CBD5E1"/>
</svg>
