<svg width="36" height="36" viewBox="0 0 36 36" fill="none" xmlns="http://www.w3.org/2000/svg">
<circle cx="18" cy="18" r="18" fill="#006742"/>
<path d="M10 11.9834C10.7383 11.9834 11.418 12.0977 12.0391 12.3262C12.666 12.5547 13.167 12.9004 13.542 13.3633C13.917 13.8203 14.1045 14.3945 14.1045 15.0859C14.1045 15.6016 14.002 16.0527 13.7969 16.4395C13.5977 16.8262 13.3252 17.166 12.9795 17.459C12.6338 17.7461 12.2412 17.998 11.8018 18.2148C12.2588 18.4551 12.6924 18.7363 13.1025 19.0586C13.5127 19.375 13.8467 19.7471 14.1045 20.1748C14.3682 20.6025 14.5 21.1006 14.5 21.6689C14.5 22.3838 14.3096 23.0049 13.9287 23.5322C13.5479 24.0537 13.0205 24.458 12.3467 24.7451C11.6729 25.0322 10.8906 25.1758 10 25.1758C9.03906 25.1758 8.22168 25.0381 7.54785 24.7627C6.87402 24.4873 6.36133 24.0947 6.00977 23.585C5.6582 23.0693 5.48242 22.4541 5.48242 21.7393C5.48242 21.1533 5.59082 20.6436 5.80762 20.21C6.03027 19.7764 6.3291 19.4043 6.7041 19.0938C7.0791 18.7773 7.49219 18.5078 7.94336 18.2852C7.5625 18.0449 7.21387 17.7725 6.89746 17.4678C6.58691 17.1631 6.33789 16.8145 6.15039 16.4219C5.96875 16.0293 5.87793 15.5781 5.87793 15.0684C5.87793 14.3887 6.06836 13.8203 6.44922 13.3633C6.83594 12.9062 7.34277 12.5635 7.96973 12.335C8.59668 12.1006 9.27344 11.9834 10 11.9834ZM7.99609 21.5811C7.99609 22.0439 8.16016 22.4277 8.48828 22.7324C8.82227 23.0312 9.31445 23.1807 9.96484 23.1807C10.6387 23.1807 11.1426 23.0371 11.4766 22.75C11.8105 22.457 11.9775 22.0732 11.9775 21.5986C11.9775 21.2705 11.8809 20.9834 11.6875 20.7373C11.5 20.4912 11.2627 20.2715 10.9756 20.0781C10.6885 19.8789 10.3984 19.6943 10.1055 19.5244L9.86816 19.4014C9.49316 19.5713 9.16504 19.7617 8.88379 19.9727C8.6084 20.1836 8.3916 20.4209 8.2334 20.6846C8.0752 20.9482 7.99609 21.2471 7.99609 21.5811ZM9.98242 13.9697C9.53711 13.9697 9.16797 14.084 8.875 14.3125C8.58203 14.541 8.43555 14.8633 8.43555 15.2793C8.43555 15.5723 8.50586 15.8301 8.64648 16.0527C8.79297 16.2695 8.9834 16.46 9.21777 16.624C9.45801 16.7881 9.71875 16.9404 10 17.0811C10.2695 16.9521 10.5215 16.8086 10.7559 16.6504C10.9902 16.4922 11.1807 16.3018 11.3271 16.0791C11.4736 15.8564 11.5469 15.5898 11.5469 15.2793C11.5469 14.8633 11.3975 14.541 11.0986 14.3125C10.8057 14.084 10.4336 13.9697 9.98242 13.9697Z" fill="white"/>
<path d="M19.582 14.8613L16.9209 22H15.5684L18.2295 14.8613H19.582ZM23.7617 22H22.2529V17.8691C22.2529 17.7552 22.2546 17.6152 22.2578 17.4492C22.2611 17.2799 22.266 17.1074 22.2725 16.9316C22.279 16.7526 22.2855 16.5915 22.292 16.4482C22.2562 16.4906 22.1829 16.5638 22.0723 16.668C21.9648 16.7689 21.8639 16.86 21.7695 16.9414L20.9492 17.6006L20.2217 16.6924L22.5215 14.8613H23.7617V22ZM30.7051 18.4307C30.7051 19.0068 30.6595 19.5212 30.5684 19.9736C30.4805 20.4261 30.3372 20.8102 30.1387 21.126C29.9434 21.4417 29.6862 21.6826 29.3672 21.8486C29.0482 22.0146 28.6608 22.0977 28.2051 22.0977C27.6322 22.0977 27.1618 21.9528 26.7939 21.6631C26.4261 21.3701 26.1543 20.9502 25.9785 20.4033C25.8027 19.8532 25.7148 19.1956 25.7148 18.4307C25.7148 17.6592 25.7946 17 25.9541 16.4531C26.1169 15.903 26.3805 15.4814 26.7451 15.1885C27.1097 14.8955 27.5964 14.749 28.2051 14.749C28.7747 14.749 29.2435 14.8955 29.6113 15.1885C29.9824 15.4782 30.2575 15.8981 30.4365 16.4482C30.6156 16.9951 30.7051 17.6559 30.7051 18.4307ZM27.2139 18.4307C27.2139 18.9743 27.2432 19.4284 27.3018 19.793C27.3636 20.1543 27.4661 20.4261 27.6094 20.6084C27.7526 20.7907 27.9512 20.8818 28.2051 20.8818C28.4557 20.8818 28.6527 20.7923 28.7959 20.6133C28.9424 20.431 29.0465 20.1592 29.1084 19.7979C29.1702 19.4333 29.2012 18.9775 29.2012 18.4307C29.2012 17.887 29.1702 17.4329 29.1084 17.0684C29.0465 16.7038 28.9424 16.4303 28.7959 16.248C28.6527 16.0625 28.4557 15.9697 28.2051 15.9697C27.9512 15.9697 27.7526 16.0625 27.6094 16.248C27.4661 16.4303 27.3636 16.7038 27.3018 17.0684C27.2432 17.4329 27.2139 17.887 27.2139 18.4307Z" fill="#CBD5E1"/>
</svg>
