<svg width="97" height="97" viewBox="0 0 97 97" fill="none" xmlns="http://www.w3.org/2000/svg">
<rect x="11" y="1" width="75" height="95" rx="7" fill="white"/>
<rect x="11" y="1" width="75" height="95" rx="7" fill="url(#paint0_linear_3893_1043)" fill-opacity="0.2"/>
<rect x="11" y="1" width="75" height="95" rx="7" fill="url(#paint1_linear_3893_1043)" fill-opacity="0.2"/>
<rect x="13" y="3" width="71" height="92" rx="4" stroke="white" stroke-width="4"/>
<rect x="10.75" y="0.75" width="75.5" height="95.5" rx="6.25" stroke="#94A3B8" stroke-width="0.5"/>
<path d="M36.5106 87C29.0441 82.6073 24 74.2386 24 64.6371C24 60.8424 24.7879 57.2402 26.2018 54M60.4894 87C67.9559 82.6073 73 74.2386 73 64.6371C73 60.8424 72.2121 57.2402 70.7982 54M29.9889 47.842C34.481 42.4254 41.1082 39 48.5 39C55.8918 39 62.519 42.4254 67.0111 47.842" stroke="#94A3B8" stroke-width="3" stroke-linecap="round"/>
<path d="M48.1074 68H46.3789L42.1836 61.1621H42.1309C42.1465 61.3926 42.1602 61.6367 42.1719 61.8945C42.1875 62.1523 42.1992 62.418 42.207 62.6914C42.2188 62.9648 42.2285 63.2422 42.2363 63.5234V68H40.959V59.4336H42.6758L46.8652 66.2246H46.9062C46.8984 66.0254 46.8887 65.7969 46.877 65.5391C46.8652 65.2812 46.8535 65.0156 46.8418 64.7422C46.834 64.4648 46.8281 64.1973 46.8242 63.9395V59.4336H48.1074V68ZM55.666 68L54.8281 65.6211H51.5527L50.7148 68H49.2324L52.4199 59.3984H53.9785L57.1602 68H55.666ZM54.4648 64.4141L53.6504 62.0703C53.6191 61.9688 53.5742 61.8262 53.5156 61.6426C53.457 61.4551 53.3984 61.2656 53.3398 61.0742C53.2812 60.8789 53.2324 60.7148 53.1934 60.582C53.1543 60.7422 53.1055 60.9219 53.0469 61.1211C52.9922 61.3164 52.9375 61.5 52.8828 61.6719C52.832 61.8438 52.793 61.9766 52.7656 62.0703L51.9453 64.4141H54.4648Z" fill="#0F172A"/>
<path d="M26.2305 24.4336C27.0078 24.4336 27.6543 24.5293 28.1699 24.7207C28.6855 24.9082 29.0723 25.1895 29.3301 25.5645C29.5918 25.9395 29.7227 26.4062 29.7227 26.9648C29.7227 27.3125 29.6641 27.6289 29.5469 27.9141C29.4297 28.1992 29.2617 28.4551 29.043 28.6816C28.8281 28.9043 28.5703 29.0996 28.2695 29.2676L30.7656 33H28.1406L26.3242 29.8828H25.7383V33H23.4238V24.4336H26.2305ZM26.1953 26.1855H25.7383V28.1426H26.1719C26.5273 28.1426 26.8184 28.0645 27.0449 27.9082C27.2715 27.752 27.3848 27.4727 27.3848 27.0703C27.3848 26.793 27.291 26.5762 27.1035 26.4199C26.916 26.2637 26.6133 26.1855 26.1953 26.1855ZM37.8008 33L37.3789 31.3945H34.5957L34.1621 33H31.6191L34.4141 24.3984H37.502L40.332 33H37.8008ZM36.8984 29.4961L36.5293 28.0898C36.4902 27.9375 36.4336 27.7207 36.3594 27.4395C36.2852 27.1543 36.2109 26.8613 36.1367 26.5605C36.0664 26.2559 36.0117 26.0059 35.9727 25.8105C35.9375 26.0059 35.8867 26.248 35.8203 26.5371C35.7578 26.8223 35.6914 27.1055 35.6211 27.3867C35.5547 27.668 35.4961 27.9023 35.4453 28.0898L35.0762 29.4961H36.8984ZM46.043 33H43.7285V26.3262H41.6367V24.4336H48.1289V26.3262H46.043V33ZM50.3535 33V24.4336H52.6797V33H50.3535ZM63.6934 33H60.6582L57.5293 26.9648H57.4766C57.4961 27.1484 57.5137 27.3691 57.5293 27.627C57.5449 27.8848 57.5586 28.1484 57.5703 28.418C57.582 28.6836 57.5879 28.9238 57.5879 29.1387V33H55.5371V24.4336H58.5605L61.6777 30.3867H61.7129C61.7012 30.1992 61.6895 29.9824 61.6777 29.7363C61.666 29.4863 61.6543 29.2344 61.6426 28.9805C61.6348 28.7266 61.6309 28.502 61.6309 28.3066V24.4336H63.6934V33ZM69.9844 27.9844H73.6816V32.6016C73.2402 32.7539 72.7344 32.8789 72.1641 32.9766C71.5938 33.0703 70.9961 33.1172 70.3711 33.1172C69.5469 33.1172 68.8242 32.957 68.2031 32.6367C67.582 32.3164 67.0977 31.8301 66.75 31.1777C66.4023 30.5215 66.2285 29.6934 66.2285 28.6934C66.2285 27.7949 66.4004 27.0195 66.7441 26.3672C67.0879 25.7109 67.5938 25.2051 68.2617 24.8496C68.9336 24.4902 69.7559 24.3105 70.7285 24.3105C71.2637 24.3105 71.7715 24.3613 72.252 24.4629C72.7324 24.5645 73.1504 24.6934 73.5059 24.8496L72.7734 26.666C72.4648 26.5137 72.1445 26.4004 71.8125 26.3262C71.4805 26.248 71.123 26.209 70.7402 26.209C70.2285 26.209 69.8164 26.3242 69.5039 26.5547C69.1953 26.7852 68.9707 27.0938 68.8301 27.4805C68.6895 27.8633 68.6191 28.2871 68.6191 28.752C68.6191 29.2832 68.6934 29.7324 68.8418 30.0996C68.9941 30.4629 69.2148 30.7402 69.5039 30.9316C69.7969 31.1191 70.1504 31.2129 70.5645 31.2129C70.7012 31.2129 70.8672 31.2031 71.0625 31.1836C71.2617 31.1641 71.4121 31.1406 71.5137 31.1133V29.7715H69.9844V27.9844Z" fill="#0F172A"/>
<path d="M82.7915 4H14.7939C13.0435 4 11.3413 4.57266 9.94682 5.6306C8.74605 6.5416 7.2802 7.03472 5.77296 7.03472H1.49718C0.987358 7.03472 0.686858 7.60679 0.976177 8.02657L5.29998 14.3001C5.53707 14.6441 5.53532 15.0992 5.2956 15.4413L0.799981 21.8581C0.4631 22.339 0.807087 23 1.3942 23H8.55496C9.89975 23 11.2098 22.5727 12.2959 21.7797C13.1592 21.1494 14.2005 20.8097 15.2694 20.8097H81.4877C82.6946 20.8097 83.8703 21.1932 84.845 21.9049C85.8197 22.6165 86.9954 23 88.2022 23H95.2085C95.9378 23 96.3481 22.1613 95.9005 21.5856L91.4623 15.876C91.1886 15.5239 91.1812 15.033 91.4442 14.6728L96.2984 8.0223C96.5901 7.62274 96.3047 7.06111 95.81 7.06111H90.0775C88.7069 7.06111 87.3939 6.50948 86.4345 5.53056C85.4751 4.55163 84.1621 4 82.7915 4Z" fill="#1A9DD1"/>
<path d="M82.7915 4H14.7939C13.0435 4 11.3413 4.57266 9.94682 5.6306C8.74605 6.5416 7.2802 7.03472 5.77296 7.03472H1.49718C0.987358 7.03472 0.686858 7.60679 0.976177 8.02657L5.29998 14.3001C5.53707 14.6441 5.53532 15.0992 5.2956 15.4413L0.799981 21.8581C0.4631 22.339 0.807087 23 1.3942 23H8.55496C9.89975 23 11.2098 22.5727 12.2959 21.7797C13.1592 21.1494 14.2005 20.8097 15.2694 20.8097H81.4877C82.6946 20.8097 83.8703 21.1932 84.845 21.9049C85.8197 22.6165 86.9954 23 88.2022 23H95.2085C95.9378 23 96.3481 22.1613 95.9005 21.5856L91.4623 15.876C91.1886 15.5239 91.1812 15.033 91.4442 14.6728L96.2984 8.0223C96.5901 7.62274 96.3047 7.06111 95.81 7.06111H90.0775C88.7069 7.06111 87.3939 6.50948 86.4345 5.53056C85.4751 4.55163 84.1621 4 82.7915 4Z" fill="url(#paint2_linear_3893_1043)" fill-opacity="0.2"/>
<path d="M15.7088 17.123C14.826 17.123 14.078 16.9512 13.4647 16.6074C12.8553 16.2637 12.3905 15.7871 12.0702 15.1777C11.7498 14.5645 11.5897 13.8555 11.5897 13.0508V12.6641C11.5897 11.8164 11.7479 11.0684 12.0643 10.4199C12.3807 9.77148 12.8397 9.26367 13.4412 8.89648C14.0428 8.5293 14.7694 8.3457 15.6209 8.3457C16.203 8.3457 16.787 8.43555 17.3729 8.61523C17.9588 8.79102 18.4745 9.07031 18.9198 9.45312V11.4512H17.4549L17.1444 10.3672C17.0116 10.2305 16.8221 10.1172 16.576 10.0273C16.3338 9.9375 16.0604 9.89258 15.7557 9.89258C15.287 9.89258 14.8944 10.0098 14.578 10.2441C14.2616 10.4746 14.0233 10.7969 13.8631 11.2109C13.7069 11.625 13.6287 12.1055 13.6287 12.6523V13.0508C13.6287 13.5664 13.7108 14.0137 13.8748 14.3926C14.0428 14.7715 14.287 15.0645 14.6073 15.2715C14.9276 15.4785 15.3221 15.582 15.7909 15.582C16.037 15.582 16.2811 15.5566 16.5233 15.5059C16.7655 15.4551 16.9549 15.3984 17.0916 15.3359V14.2344L16.1307 14.1172V12.6992H19.1541V16.2383C18.6932 16.5352 18.1717 16.7578 17.5897 16.9062C17.0116 17.0508 16.3846 17.123 15.7088 17.123ZM20.0009 17V15.7988L20.7392 15.6113V12.0547L19.8603 11.8672V10.6602H22.6787L22.7255 11.4336L22.7373 11.5918C22.8779 11.2324 23.0517 10.9688 23.2587 10.8008C23.4697 10.6289 23.7314 10.543 24.0439 10.543C24.1298 10.543 24.2314 10.5508 24.3486 10.5664C24.4658 10.5781 24.5849 10.6016 24.706 10.6367L24.5009 12.5234L23.622 12.4824C23.4189 12.4746 23.2587 12.498 23.1416 12.5527C23.0283 12.6035 22.913 12.6895 22.7959 12.8105V15.6113L23.5341 15.7988V17H20.0009ZM27.9845 17.123C27.3634 17.123 26.8204 16.9902 26.3555 16.7246C25.8946 16.4551 25.5352 16.0879 25.2774 15.623C25.0235 15.1582 24.8966 14.6328 24.8966 14.0469V13.8301C24.8966 13.1855 25.0098 12.6152 25.2364 12.1191C25.463 11.623 25.795 11.2363 26.2325 10.959C26.67 10.6777 27.2071 10.5391 27.8438 10.543C28.418 10.543 28.9024 10.6543 29.297 10.877C29.6954 11.0957 29.9981 11.4199 30.2052 11.8496C30.4122 12.2754 30.5157 12.8008 30.5157 13.4258V14.4863H27.0294L27.0235 14.5273C27.0548 14.7266 27.1212 14.9043 27.2227 15.0605C27.3282 15.2129 27.4727 15.334 27.6563 15.4238C27.8399 15.5137 28.0665 15.5586 28.336 15.5586C28.6016 15.5586 28.8614 15.5293 29.1153 15.4707C29.3731 15.4082 29.6446 15.3105 29.9298 15.1777L30.3985 16.4199C30.1134 16.623 29.7657 16.791 29.3555 16.9238C28.9454 17.0566 28.4884 17.123 27.9845 17.123ZM27.0294 13.2148H28.6407V13.0625C28.6407 12.8359 28.6173 12.6465 28.5704 12.4941C28.5274 12.3418 28.4513 12.2266 28.3419 12.1484C28.2325 12.0703 28.0821 12.0312 27.8907 12.0312C27.6837 12.0312 27.5177 12.082 27.3927 12.1836C27.2716 12.2812 27.1817 12.418 27.1231 12.5938C27.0684 12.7656 27.0294 12.9629 27.0059 13.1855L27.0294 13.2148ZM33.2434 17.123C32.6301 17.123 32.1301 16.9492 31.7434 16.6016C31.3566 16.2539 31.1633 15.791 31.1633 15.2129C31.1633 14.8184 31.2687 14.4688 31.4797 14.1641C31.6945 13.8594 32.0148 13.6211 32.4406 13.4492C32.8703 13.2734 33.4074 13.1855 34.052 13.1855H34.7141V12.8105C34.7141 12.5566 34.6418 12.3418 34.4973 12.166C34.3527 11.9863 34.1242 11.8965 33.8117 11.8965C33.6789 11.8965 33.5539 11.9141 33.4367 11.9492C33.3234 11.9805 33.2199 12.0273 33.1262 12.0898L32.9855 12.8984H31.5383L31.509 11.1348C31.8684 10.9746 32.2434 10.8359 32.634 10.7188C33.0285 10.6016 33.468 10.543 33.9523 10.543C34.8156 10.543 35.5012 10.7422 36.009 11.1406C36.5168 11.5352 36.7707 12.0996 36.7707 12.834V15.1719C36.7707 15.2617 36.7707 15.3496 36.7707 15.4355C36.7746 15.5215 36.7844 15.6035 36.8 15.6816L37.4855 15.7988V17H35.0832C35.0324 16.9297 34.9777 16.8359 34.9191 16.7188C34.8605 16.6016 34.8195 16.4844 34.7961 16.3672C34.6047 16.6055 34.3898 16.791 34.1516 16.9238C33.9133 17.0566 33.6105 17.123 33.2434 17.123ZM33.8762 15.6699C34.0246 15.6699 34.173 15.6406 34.3215 15.582C34.4738 15.5195 34.6047 15.4277 34.7141 15.3066V14.3926H34.0754C33.798 14.3926 33.5832 14.4531 33.4309 14.5742C33.2824 14.6953 33.2082 14.8555 33.2082 15.0547C33.2082 15.2461 33.2707 15.3965 33.3957 15.5059C33.5207 15.6152 33.6809 15.6699 33.8762 15.6699ZM40.1077 17.1348C39.4437 17.1348 38.9378 16.959 38.5902 16.6074C38.2464 16.252 38.0745 15.6914 38.0745 14.9258V12.0781H37.2835V10.6602H38.0745V9.0957H40.1195V10.6602H41.1566V12.0781H40.1195V14.9199C40.1195 15.127 40.1663 15.2715 40.2601 15.3535C40.3538 15.4355 40.4827 15.4766 40.6468 15.4766C40.7171 15.4766 40.7874 15.4727 40.8577 15.4648C40.928 15.457 40.9984 15.4473 41.0687 15.4355L41.2093 16.9707C41.0296 17.0215 40.848 17.0605 40.6644 17.0879C40.4847 17.1191 40.2991 17.1348 40.1077 17.1348ZM45.3022 17.123C44.6069 17.123 43.9897 17.0566 43.4506 16.9238C42.9116 16.791 42.3745 16.541 41.8393 16.1738V13.959H43.4272L43.603 15.0957C43.728 15.2363 43.9487 15.3555 44.2651 15.4531C44.5815 15.5469 44.9272 15.5938 45.3022 15.5938C45.5639 15.5938 45.7827 15.5625 45.9584 15.5C46.1342 15.4336 46.267 15.3379 46.3569 15.2129C46.4467 15.0879 46.4916 14.9375 46.4916 14.7617C46.4916 14.5938 46.4487 14.4434 46.3627 14.3105C46.2807 14.1777 46.144 14.0527 45.9526 13.9355C45.7612 13.8145 45.5034 13.6914 45.1791 13.5664C44.4487 13.332 43.8491 13.0938 43.3803 12.8516C42.9116 12.6094 42.562 12.3223 42.3315 11.9902C42.1049 11.6582 41.9916 11.2461 41.9916 10.7539C41.9916 10.2812 42.1264 9.86914 42.3959 9.51758C42.6655 9.16211 43.0366 8.88281 43.5092 8.67969C43.9819 8.47656 44.5229 8.36914 45.1323 8.35742C45.8276 8.3418 46.4428 8.41211 46.978 8.56836C47.5131 8.7207 47.9858 8.95312 48.3959 9.26562V11.3223H46.8725L46.6323 10.1797C46.4995 10.1133 46.31 10.0527 46.0639 9.99805C45.8178 9.94336 45.5561 9.91602 45.2787 9.91602C45.0405 9.91602 44.8276 9.94727 44.6401 10.0098C44.4565 10.0723 44.31 10.166 44.2006 10.291C44.0952 10.416 44.0424 10.5723 44.0424 10.7598C44.0424 10.9121 44.0873 11.0488 44.1772 11.1699C44.267 11.2871 44.4252 11.4062 44.6518 11.5273C44.8784 11.6445 45.1948 11.7812 45.601 11.9375C46.5698 12.2227 47.3041 12.5801 47.8041 13.0098C48.308 13.4355 48.56 14.0156 48.56 14.75C48.56 15.2539 48.4233 15.6836 48.1498 16.0391C47.8764 16.3906 47.4955 16.6602 47.0073 16.8477C46.519 17.0312 45.9506 17.123 45.3022 17.123ZM52.0494 17.123C51.4205 17.123 50.8795 16.9844 50.4263 16.707C49.9732 16.4297 49.6255 16.0488 49.3834 15.5645C49.1412 15.0801 49.0201 14.5273 49.0201 13.9062V13.7715C49.0201 13.1348 49.1451 12.5742 49.3951 12.0898C49.649 11.6055 50.0005 11.2266 50.4498 10.9531C50.9029 10.6797 51.4302 10.543 52.0318 10.543C52.6373 10.543 53.1548 10.6348 53.5845 10.8184C54.0181 11.002 54.3599 11.1934 54.6099 11.3926L54.5748 13.3906H53.0455L52.7994 12.2422C52.733 12.1758 52.6431 12.1211 52.5298 12.0781C52.4205 12.0352 52.3287 12.0137 52.2545 12.0137C51.9615 12.0137 51.7291 12.0781 51.5572 12.207C51.3853 12.332 51.2623 12.5234 51.188 12.7812C51.1138 13.0391 51.0767 13.3691 51.0767 13.7715V13.9062C51.0767 14.3242 51.1255 14.6543 51.2232 14.8965C51.3248 15.1348 51.4517 15.3047 51.6041 15.4062C51.7564 15.5078 51.9127 15.5586 52.0728 15.5586C52.3189 15.5586 52.5084 15.498 52.6412 15.377C52.7779 15.252 52.8834 15.0703 52.9576 14.832H54.6802L54.7037 14.8672C54.6099 15.3711 54.4634 15.791 54.2642 16.127C54.065 16.459 53.7877 16.709 53.4322 16.877C53.0806 17.041 52.6197 17.123 52.0494 17.123ZM55.2165 17V15.7988L55.9606 15.6113V9.25391L55.07 9.06641V7.85938H58.0055V11.4453C58.193 11.1602 58.4274 10.9395 58.7087 10.7832C58.9899 10.623 59.3161 10.543 59.6872 10.543C60.2966 10.543 60.7868 10.7617 61.1579 11.1992C61.529 11.6328 61.7145 12.3047 61.7145 13.2148V15.6113L62.4528 15.7988V17H59.0544V15.7988L59.6579 15.6113V13.2031C59.6579 12.7891 59.5876 12.5059 59.447 12.3535C59.3102 12.1973 59.111 12.1191 58.8493 12.1191C58.6696 12.1191 58.5075 12.1504 58.363 12.2129C58.2184 12.2754 58.0993 12.375 58.0055 12.5117V15.6113L58.6091 15.7988V17H55.2165ZM65.8133 17.123C65.1609 17.123 64.6023 16.9883 64.1375 16.7188C63.6766 16.4453 63.323 16.0664 63.077 15.582C62.8348 15.0938 62.7137 14.5293 62.7137 13.8887V13.7715C62.7137 13.1387 62.8348 12.5801 63.077 12.0957C63.323 11.6113 63.6766 11.2324 64.1375 10.959C64.5984 10.6816 65.1531 10.543 65.8016 10.543C66.4539 10.543 67.0086 10.6797 67.4656 10.9531C67.9266 11.2266 68.2781 11.6055 68.5203 12.0898C68.7664 12.5742 68.8895 13.1348 68.8895 13.7715V13.8887C68.8895 14.5254 68.7664 15.0879 68.5203 15.5762C68.2781 16.0605 67.9266 16.4395 67.4656 16.7129C67.0086 16.9863 66.4578 17.123 65.8133 17.123ZM65.8133 15.5586C66.0633 15.5586 66.2625 15.4922 66.4109 15.3594C66.5633 15.2227 66.6727 15.0293 66.7391 14.7793C66.8094 14.5293 66.8445 14.2324 66.8445 13.8887V13.7715C66.8445 13.4395 66.8094 13.1504 66.7391 12.9043C66.6727 12.6543 66.5633 12.4609 66.4109 12.3242C66.2586 12.1836 66.0555 12.1133 65.8016 12.1133C65.5516 12.1133 65.3504 12.1836 65.198 12.3242C65.0457 12.4609 64.9363 12.6543 64.8699 12.9043C64.8035 13.1504 64.7703 13.4395 64.7703 13.7715V13.8887C64.7703 14.2363 64.8035 14.5352 64.8699 14.7852C64.9363 15.0352 65.0457 15.2266 65.198 15.3594C65.3504 15.4922 65.5555 15.5586 65.8133 15.5586ZM72.5605 17.123C71.9081 17.123 71.3495 16.9883 70.8847 16.7188C70.4237 16.4453 70.0702 16.0664 69.8241 15.582C69.582 15.0938 69.4609 14.5293 69.4609 13.8887V13.7715C69.4609 13.1387 69.582 12.5801 69.8241 12.0957C70.0702 11.6113 70.4237 11.2324 70.8847 10.959C71.3456 10.6816 71.9003 10.543 72.5487 10.543C73.2011 10.543 73.7558 10.6797 74.2128 10.9531C74.6737 11.2266 75.0253 11.6055 75.2675 12.0898C75.5136 12.5742 75.6366 13.1348 75.6366 13.7715V13.8887C75.6366 14.5254 75.5136 15.0879 75.2675 15.5762C75.0253 16.0605 74.6737 16.4395 74.2128 16.7129C73.7558 16.9863 73.205 17.123 72.5605 17.123ZM72.5605 15.5586C72.8105 15.5586 73.0097 15.4922 73.1581 15.3594C73.3105 15.2227 73.4198 15.0293 73.4862 14.7793C73.5566 14.5293 73.5917 14.2324 73.5917 13.8887V13.7715C73.5917 13.4395 73.5566 13.1504 73.4862 12.9043C73.4198 12.6543 73.3105 12.4609 73.1581 12.3242C73.0058 12.1836 72.8027 12.1133 72.5487 12.1133C72.2987 12.1133 72.0976 12.1836 71.9452 12.3242C71.7929 12.4609 71.6835 12.6543 71.6171 12.9043C71.5507 13.1504 71.5175 13.4395 71.5175 13.7715V13.8887C71.5175 14.2363 71.5507 14.5352 71.6171 14.7852C71.6835 15.0352 71.7929 15.2266 71.9452 15.3594C72.0976 15.4922 72.3027 15.5586 72.5605 15.5586ZM75.962 17V15.7988L76.712 15.6113V9.25391L75.8213 9.06641V7.85938H78.7686V15.6113L79.5127 15.7988V17H75.962ZM82.6037 17.123C82.1037 17.123 81.6369 17.0781 81.2033 16.9883C80.7736 16.8945 80.3849 16.7676 80.0373 16.6074L80.0138 14.6328H81.4025L81.6369 15.5527C81.7189 15.6035 81.8244 15.6484 81.9533 15.6875C82.0822 15.7227 82.2365 15.7402 82.4162 15.7402C82.7482 15.7402 82.9767 15.6953 83.1017 15.6055C83.2267 15.5156 83.2892 15.4023 83.2892 15.2656C83.2892 15.1328 83.2169 15.0117 83.0724 14.9023C82.9318 14.7891 82.6291 14.6895 82.1642 14.6035C81.422 14.459 80.8752 14.2129 80.5236 13.8652C80.172 13.5137 79.9962 13.0762 79.9962 12.5527C79.9962 12.1973 80.0783 11.8691 80.2423 11.5684C80.4064 11.2676 80.674 11.0254 81.0451 10.8418C81.4201 10.6543 81.9201 10.5605 82.5451 10.5605C83.0216 10.5605 83.4748 10.6016 83.9044 10.6836C84.338 10.7656 84.6935 10.8691 84.9709 10.9941L84.965 12.9043H83.5822L83.4064 12.084C83.3166 12.0215 83.215 11.9746 83.1017 11.9434C82.9884 11.9121 82.8615 11.8965 82.7209 11.8965C82.4591 11.8965 82.2677 11.9434 82.1466 12.0371C82.0255 12.1309 81.965 12.252 81.965 12.4004C81.965 12.4863 81.9904 12.5723 82.0412 12.6582C82.0959 12.7441 82.2013 12.8262 82.3576 12.9043C82.5138 12.9824 82.7423 13.0547 83.0431 13.1211C83.7658 13.2812 84.3087 13.5039 84.672 13.7891C85.0392 14.0742 85.2228 14.5078 85.2228 15.0898C85.2228 15.7148 84.9982 16.2109 84.549 16.5781C84.1037 16.9414 83.4552 17.123 82.6037 17.123Z" fill="white"/>
<defs>
<linearGradient id="paint0_linear_3893_1043" x1="43" y1="39.5" x2="29.6913" y2="23.6803" gradientUnits="userSpaceOnUse">
<stop offset="0.265" stop-color="#F1F5F9"/>
<stop offset="1" stop-color="#94A3B8"/>
</linearGradient>
<linearGradient id="paint1_linear_3893_1043" x1="61" y1="61.6944" x2="86.147" y2="93.0978" gradientUnits="userSpaceOnUse">
<stop offset="0.368199" stop-color="#F1F5F9"/>
<stop offset="0.915915" stop-color="#94A3B8"/>
</linearGradient>
<linearGradient id="paint2_linear_3893_1043" x1="48" y1="4" x2="48" y2="23" gradientUnits="userSpaceOnUse">
<stop stop-color="#1A9DD1"/>
<stop offset="1" stop-color="white"/>
</linearGradient>
</defs>
</svg>
