<svg width="97" height="97" viewBox="0 0 97 97" fill="none" xmlns="http://www.w3.org/2000/svg">
<rect width="97" height="97" fill="#F5F5F5"/>
<rect width="459" height="174" transform="translate(-64 -38)" fill="white"/>
<rect x="-19.5" y="-18.5" width="370" height="134" rx="4.5" stroke="#9747FF" stroke-dasharray="10 5"/>
<rect x="11" y="1" width="75" height="95" rx="7" fill="white"/>
<rect x="11" y="1" width="75" height="95" rx="7" fill="url(#paint0_linear_3874_2316)" fill-opacity="0.2"/>
<rect x="11" y="1" width="75" height="95" rx="7" fill="url(#paint1_linear_3874_2316)" fill-opacity="0.2"/>
<rect x="13" y="3" width="71" height="92" rx="4" stroke="white" stroke-width="4"/>
<rect x="10.75" y="0.75" width="75.5" height="95.5" rx="6.25" stroke="#94A3B8" stroke-width="0.5"/>
<path d="M36.5106 87C29.0441 82.6073 24 74.2386 24 64.6371C24 61.0269 24.7131 57.591 26 54.4753M60.4894 87C67.9559 82.6073 73 74.2386 73 64.6371C73 61.0269 72.2869 57.591 71 54.4753M29.9889 47.842C30.3721 47.3799 30.7709 46.9323 31.1844 46.5C35.6174 41.8658 41.7389 39 48.5 39C55.8918 39 62.519 42.4254 67.0111 47.842" stroke="#94A3B8" stroke-width="3" stroke-linecap="round"/>
<path d="M31.9824 53.4336H34.5312C35.6367 53.4336 36.4707 53.5938 37.0332 53.9141C37.5957 54.2344 37.877 54.7871 37.877 55.5723C37.877 55.9004 37.8184 56.1973 37.7012 56.4629C37.5879 56.7246 37.4219 56.9414 37.2031 57.1133C36.9844 57.2812 36.7148 57.3945 36.3945 57.4531V57.5117C36.7266 57.5703 37.0215 57.6738 37.2793 57.8223C37.541 57.9707 37.7461 58.1836 37.8945 58.4609C38.0469 58.7383 38.123 59.0977 38.123 59.5391C38.123 60.0625 37.998 60.5078 37.748 60.875C37.502 61.2422 37.1484 61.5215 36.6875 61.7129C36.2305 61.9043 35.6875 62 35.0586 62H31.9824V53.4336ZM33.3887 56.9668H34.7363C35.373 56.9668 35.8145 56.8633 36.0605 56.6562C36.3066 56.4492 36.4297 56.1465 36.4297 55.748C36.4297 55.3418 36.2832 55.0488 35.9902 54.8691C35.7012 54.6895 35.2402 54.5996 34.6074 54.5996H33.3887V56.9668ZM33.3887 58.1035V60.8223H34.8711C35.5273 60.8223 35.9883 60.6953 36.2539 60.4414C36.5195 60.1875 36.6523 59.8438 36.6523 59.4102C36.6523 59.1445 36.5918 58.9141 36.4707 58.7188C36.3535 58.5234 36.1602 58.373 35.8906 58.2676C35.6211 58.1582 35.2578 58.1035 34.8008 58.1035H33.3887ZM42.3359 55.3906C42.9141 55.3906 43.4102 55.5098 43.8242 55.748C44.2383 55.9863 44.5566 56.3242 44.7793 56.7617C45.002 57.1992 45.1133 57.7227 45.1133 58.332V59.0703H40.7832C40.7988 59.6992 40.9668 60.1836 41.2871 60.5234C41.6113 60.8633 42.0645 61.0332 42.6465 61.0332C43.0605 61.0332 43.4316 60.9941 43.7598 60.916C44.0918 60.834 44.4336 60.7148 44.7852 60.5586V61.6777C44.4609 61.8301 44.1309 61.9414 43.7949 62.0117C43.459 62.082 43.0566 62.1172 42.5879 62.1172C41.9512 62.1172 41.3906 61.9941 40.9062 61.748C40.4258 61.498 40.0488 61.127 39.7754 60.6348C39.5059 60.1426 39.3711 59.5312 39.3711 58.8008C39.3711 58.0742 39.4941 57.457 39.7402 56.9492C39.9863 56.4414 40.332 56.0547 40.7773 55.7891C41.2227 55.5234 41.7422 55.3906 42.3359 55.3906ZM42.3359 56.4277C41.9023 56.4277 41.5508 56.5684 41.2812 56.8496C41.0156 57.1309 40.8594 57.543 40.8125 58.0859H43.7656C43.7617 57.7617 43.707 57.4746 43.6016 57.2246C43.5 56.9746 43.3438 56.7793 43.1328 56.6387C42.9258 56.498 42.6602 56.4277 42.3359 56.4277ZM48.0488 62H46.666V52.8828H48.0488V62ZM55.7598 58.7422C55.7598 59.2812 55.6895 59.7598 55.5488 60.1777C55.4082 60.5957 55.2031 60.9492 54.9336 61.2383C54.6641 61.5234 54.3398 61.7422 53.9609 61.8945C53.582 62.043 53.1543 62.1172 52.6777 62.1172C52.2324 62.1172 51.8242 62.043 51.4531 61.8945C51.082 61.7422 50.7598 61.5234 50.4863 61.2383C50.2168 60.9492 50.0078 60.5957 49.8594 60.1777C49.7109 59.7598 49.6367 59.2812 49.6367 58.7422C49.6367 58.0273 49.7598 57.4219 50.0059 56.9258C50.2559 56.4258 50.6113 56.0449 51.0723 55.7832C51.5332 55.5215 52.082 55.3906 52.7188 55.3906C53.3164 55.3906 53.8438 55.5215 54.3008 55.7832C54.7578 56.0449 55.1152 56.4258 55.373 56.9258C55.6309 57.4258 55.7598 58.0312 55.7598 58.7422ZM51.0547 58.7422C51.0547 59.2148 51.1113 59.6191 51.2246 59.9551C51.3418 60.291 51.5215 60.5488 51.7637 60.7285C52.0059 60.9043 52.3184 60.9922 52.7012 60.9922C53.084 60.9922 53.3965 60.9043 53.6387 60.7285C53.8809 60.5488 54.0586 60.291 54.1719 59.9551C54.2852 59.6191 54.3418 59.2148 54.3418 58.7422C54.3418 58.2695 54.2852 57.8691 54.1719 57.541C54.0586 57.209 53.8809 56.957 53.6387 56.7852C53.3965 56.6094 53.082 56.5215 52.6953 56.5215C52.125 56.5215 51.709 56.7129 51.4473 57.0957C51.1855 57.4785 51.0547 58.0273 51.0547 58.7422ZM62.6445 61.9941L61.8242 58.9766C61.7852 58.8281 61.7383 58.6484 61.6836 58.4375C61.6289 58.2266 61.5742 58.0098 61.5195 57.7871C61.4648 57.5605 61.4141 57.3516 61.3672 57.1602C61.3242 56.9688 61.291 56.8203 61.2676 56.7148H61.2207C61.2012 56.8203 61.1699 56.9688 61.127 57.1602C61.084 57.3516 61.0352 57.5605 60.9805 57.7871C60.9258 58.0137 60.8711 58.2344 60.8164 58.4492C60.7656 58.6641 60.7188 58.8477 60.6758 59L59.8145 61.9941H58.3027L56.4863 55.5078H57.8809L58.7246 58.7305C58.7793 58.9492 58.832 59.1855 58.8828 59.4395C58.9375 59.6934 58.9844 59.9355 59.0234 60.166C59.0625 60.3965 59.0918 60.5859 59.1113 60.7344H59.1582C59.1738 60.6289 59.1953 60.4961 59.2227 60.3359C59.25 60.1719 59.2812 60.002 59.3164 59.8262C59.3516 59.6465 59.3867 59.4785 59.4219 59.3223C59.457 59.1621 59.4902 59.0332 59.5215 58.9355L60.5176 55.5078H62.0234L62.9785 58.9355C63.0215 59.084 63.0684 59.2715 63.1191 59.498C63.1699 59.7207 63.2148 59.9453 63.2539 60.1719C63.2969 60.3945 63.3242 60.5801 63.3359 60.7285H63.3828C63.3984 60.5957 63.4258 60.416 63.4648 60.1895C63.5078 59.959 63.5566 59.7148 63.6113 59.457C63.666 59.1953 63.7227 58.9531 63.7812 58.7305L64.6426 55.5078H66.0137L64.1855 61.9941H62.6445ZM44.4336 75L43.5957 72.6211H40.3203L39.4824 75H38L41.1875 66.3984H42.7461L45.9277 75H44.4336ZM43.2324 71.4141L42.418 69.0703C42.3867 68.9688 42.3418 68.8262 42.2832 68.6426C42.2246 68.4551 42.166 68.2656 42.1074 68.0742C42.0488 67.8789 42 67.7148 41.9609 67.582C41.9219 67.7422 41.873 67.9219 41.8145 68.1211C41.7598 68.3164 41.7051 68.5 41.6504 68.6719C41.5996 68.8438 41.5605 68.9766 41.5332 69.0703L40.7129 71.4141H43.2324ZM48.4004 75L45.9336 68.5137H47.3926L48.7285 72.3223C48.8145 72.5645 48.8926 72.8262 48.9629 73.1074C49.0332 73.3887 49.082 73.625 49.1094 73.8164H49.1562C49.1836 73.6172 49.2363 73.3789 49.3145 73.1016C49.3926 72.8203 49.4727 72.5605 49.5547 72.3223L50.8906 68.5137H52.3438L49.877 75H48.4004ZM55.1797 77.8828C54.3008 77.8828 53.627 77.7246 53.1582 77.4082C52.6895 77.0918 52.4551 76.6484 52.4551 76.0781C52.4551 75.6797 52.5801 75.3418 52.8301 75.0645C53.0801 74.791 53.4375 74.6016 53.9023 74.4961C53.7266 74.418 53.5742 74.2969 53.4453 74.1328C53.3203 73.9648 53.2578 73.7793 53.2578 73.5762C53.2578 73.334 53.3262 73.127 53.4629 72.9551C53.5996 72.7832 53.8047 72.6172 54.0781 72.457C53.7383 72.3125 53.4648 72.0781 53.2578 71.7539C53.0547 71.4258 52.9531 71.041 52.9531 70.5996C52.9531 70.1309 53.0527 69.7324 53.252 69.4043C53.4512 69.0723 53.7422 68.8203 54.125 68.6484C54.5078 68.4727 54.9707 68.3848 55.5137 68.3848C55.6309 68.3848 55.7578 68.3926 55.8945 68.4082C56.0352 68.4199 56.1641 68.4355 56.2812 68.4551C56.4023 68.4707 56.4941 68.4883 56.5566 68.5078H58.8008V69.2754L57.6992 69.4805C57.8047 69.6289 57.8887 69.7988 57.9512 69.9902C58.0137 70.1777 58.0449 70.3828 58.0449 70.6055C58.0449 71.2773 57.8125 71.8066 57.3477 72.1934C56.8867 72.5762 56.25 72.7676 55.4375 72.7676C55.2422 72.7598 55.0527 72.7441 54.8691 72.7207C54.7285 72.8066 54.6211 72.9023 54.5469 73.0078C54.4727 73.1094 54.4355 73.2246 54.4355 73.3535C54.4355 73.459 54.4727 73.5449 54.5469 73.6113C54.6211 73.6738 54.7305 73.7207 54.875 73.752C55.0234 73.7832 55.2031 73.7988 55.4141 73.7988H56.5332C57.2441 73.7988 57.7871 73.9492 58.1621 74.25C58.5371 74.5508 58.7246 74.9922 58.7246 75.5742C58.7246 76.3125 58.4199 76.8809 57.8105 77.2793C57.2012 77.6816 56.3242 77.8828 55.1797 77.8828ZM55.2324 76.916C55.7129 76.916 56.1172 76.8691 56.4453 76.7754C56.7734 76.6816 57.0215 76.5469 57.1895 76.3711C57.3574 76.1992 57.4414 75.9941 57.4414 75.7559C57.4414 75.5449 57.3887 75.3828 57.2832 75.2695C57.1777 75.1562 57.0195 75.0781 56.8086 75.0352C56.5977 74.9922 56.3359 74.9707 56.0234 74.9707H55.0039C54.75 74.9707 54.5254 75.0098 54.3301 75.0879C54.1348 75.1699 53.9824 75.2871 53.873 75.4395C53.7676 75.5918 53.7148 75.7754 53.7148 75.9902C53.7148 76.2871 53.8457 76.5156 54.1074 76.6758C54.373 76.8359 54.748 76.916 55.2324 76.916ZM55.502 71.8652C55.9043 71.8652 56.2031 71.7559 56.3984 71.5371C56.5938 71.3145 56.6914 71.002 56.6914 70.5996C56.6914 70.1621 56.5898 69.834 56.3867 69.6152C56.1875 69.3965 55.8906 69.2871 55.4961 69.2871C55.1094 69.2871 54.8145 69.3984 54.6113 69.6211C54.4121 69.8438 54.3125 70.1738 54.3125 70.6113C54.3125 71.0059 54.4121 71.3145 54.6113 71.5371C54.8145 71.7559 55.1113 71.8652 55.502 71.8652Z" fill="#0F172A"/>
<path d="M36.5106 87C29.0441 82.6073 24 74.2386 24 64.6371C24 60.8424 24.7879 57.2402 26.2018 54" stroke="#0F172A" stroke-width="3" stroke-linecap="round"/>
<path d="M26.2305 24.4336C27.0078 24.4336 27.6543 24.5293 28.1699 24.7207C28.6855 24.9082 29.0723 25.1895 29.3301 25.5645C29.5918 25.9395 29.7227 26.4062 29.7227 26.9648C29.7227 27.3125 29.6641 27.6289 29.5469 27.9141C29.4297 28.1992 29.2617 28.4551 29.043 28.6816C28.8281 28.9043 28.5703 29.0996 28.2695 29.2676L30.7656 33H28.1406L26.3242 29.8828H25.7383V33H23.4238V24.4336H26.2305ZM26.1953 26.1855H25.7383V28.1426H26.1719C26.5273 28.1426 26.8184 28.0645 27.0449 27.9082C27.2715 27.752 27.3848 27.4727 27.3848 27.0703C27.3848 26.793 27.291 26.5762 27.1035 26.4199C26.916 26.2637 26.6133 26.1855 26.1953 26.1855ZM37.8008 33L37.3789 31.3945H34.5957L34.1621 33H31.6191L34.4141 24.3984H37.502L40.332 33H37.8008ZM36.8984 29.4961L36.5293 28.0898C36.4902 27.9375 36.4336 27.7207 36.3594 27.4395C36.2852 27.1543 36.2109 26.8613 36.1367 26.5605C36.0664 26.2559 36.0117 26.0059 35.9727 25.8105C35.9375 26.0059 35.8867 26.248 35.8203 26.5371C35.7578 26.8223 35.6914 27.1055 35.6211 27.3867C35.5547 27.668 35.4961 27.9023 35.4453 28.0898L35.0762 29.4961H36.8984ZM46.043 33H43.7285V26.3262H41.6367V24.4336H48.1289V26.3262H46.043V33ZM50.3535 33V24.4336H52.6797V33H50.3535ZM63.6934 33H60.6582L57.5293 26.9648H57.4766C57.4961 27.1484 57.5137 27.3691 57.5293 27.627C57.5449 27.8848 57.5586 28.1484 57.5703 28.418C57.582 28.6836 57.5879 28.9238 57.5879 29.1387V33H55.5371V24.4336H58.5605L61.6777 30.3867H61.7129C61.7012 30.1992 61.6895 29.9824 61.6777 29.7363C61.666 29.4863 61.6543 29.2344 61.6426 28.9805C61.6348 28.7266 61.6309 28.502 61.6309 28.3066V24.4336H63.6934V33ZM69.9844 27.9844H73.6816V32.6016C73.2402 32.7539 72.7344 32.8789 72.1641 32.9766C71.5938 33.0703 70.9961 33.1172 70.3711 33.1172C69.5469 33.1172 68.8242 32.957 68.2031 32.6367C67.582 32.3164 67.0977 31.8301 66.75 31.1777C66.4023 30.5215 66.2285 29.6934 66.2285 28.6934C66.2285 27.7949 66.4004 27.0195 66.7441 26.3672C67.0879 25.7109 67.5938 25.2051 68.2617 24.8496C68.9336 24.4902 69.7559 24.3105 70.7285 24.3105C71.2637 24.3105 71.7715 24.3613 72.252 24.4629C72.7324 24.5645 73.1504 24.6934 73.5059 24.8496L72.7734 26.666C72.4648 26.5137 72.1445 26.4004 71.8125 26.3262C71.4805 26.248 71.123 26.209 70.7402 26.209C70.2285 26.209 69.8164 26.3242 69.5039 26.5547C69.1953 26.7852 68.9707 27.0938 68.8301 27.4805C68.6895 27.8633 68.6191 28.2871 68.6191 28.752C68.6191 29.2832 68.6934 29.7324 68.8418 30.0996C68.9941 30.4629 69.2148 30.7402 69.5039 30.9316C69.7969 31.1191 70.1504 31.2129 70.5645 31.2129C70.7012 31.2129 70.8672 31.2031 71.0625 31.1836C71.2617 31.1641 71.4121 31.1406 71.5137 31.1133V29.7715H69.9844V27.9844Z" fill="#0F172A"/>
<path d="M82.7915 4H14.7939C13.0435 4 11.3413 4.57266 9.94682 5.6306C8.74605 6.5416 7.2802 7.03472 5.77296 7.03472H1.49718C0.987358 7.03472 0.686858 7.60679 0.976177 8.02657L5.29998 14.3001C5.53707 14.6441 5.53532 15.0992 5.2956 15.4413L0.799981 21.8581C0.4631 22.339 0.807087 23 1.3942 23H8.55496C9.89975 23 11.2098 22.5727 12.2959 21.7797C13.1592 21.1494 14.2005 20.8097 15.2694 20.8097H81.4877C82.6946 20.8097 83.8703 21.1932 84.845 21.9049C85.8197 22.6165 86.9954 23 88.2022 23H95.2085C95.9378 23 96.3481 22.1613 95.9005 21.5856L91.4623 15.876C91.1886 15.5239 91.1812 15.033 91.4442 14.6728L96.2984 8.0223C96.5901 7.62274 96.3047 7.06111 95.81 7.06111H90.0775C88.7069 7.06111 87.3939 6.50948 86.4345 5.53056C85.4751 4.55163 84.1621 4 82.7915 4Z" fill="#1A9DD1"/>
<path d="M82.7915 4H14.7939C13.0435 4 11.3413 4.57266 9.94682 5.6306C8.74605 6.5416 7.2802 7.03472 5.77296 7.03472H1.49718C0.987358 7.03472 0.686858 7.60679 0.976177 8.02657L5.29998 14.3001C5.53707 14.6441 5.53532 15.0992 5.2956 15.4413L0.799981 21.8581C0.4631 22.339 0.807087 23 1.3942 23H8.55496C9.89975 23 11.2098 22.5727 12.2959 21.7797C13.1592 21.1494 14.2005 20.8097 15.2694 20.8097H81.4877C82.6946 20.8097 83.8703 21.1932 84.845 21.9049C85.8197 22.6165 86.9954 23 88.2022 23H95.2085C95.9378 23 96.3481 22.1613 95.9005 21.5856L91.4623 15.876C91.1886 15.5239 91.1812 15.033 91.4442 14.6728L96.2984 8.0223C96.5901 7.62274 96.3047 7.06111 95.81 7.06111H90.0775C88.7069 7.06111 87.3939 6.50948 86.4345 5.53056C85.4751 4.55163 84.1621 4 82.7915 4Z" fill="url(#paint2_linear_3874_2316)" fill-opacity="0.2"/>
<path d="M15.7088 17.123C14.826 17.123 14.078 16.9512 13.4647 16.6074C12.8553 16.2637 12.3905 15.7871 12.0702 15.1777C11.7498 14.5645 11.5897 13.8555 11.5897 13.0508V12.6641C11.5897 11.8164 11.7479 11.0684 12.0643 10.4199C12.3807 9.77148 12.8397 9.26367 13.4412 8.89648C14.0428 8.5293 14.7694 8.3457 15.6209 8.3457C16.203 8.3457 16.787 8.43555 17.3729 8.61523C17.9588 8.79102 18.4745 9.07031 18.9198 9.45312V11.4512H17.4549L17.1444 10.3672C17.0116 10.2305 16.8221 10.1172 16.576 10.0273C16.3338 9.9375 16.0604 9.89258 15.7557 9.89258C15.287 9.89258 14.8944 10.0098 14.578 10.2441C14.2616 10.4746 14.0233 10.7969 13.8631 11.2109C13.7069 11.625 13.6287 12.1055 13.6287 12.6523V13.0508C13.6287 13.5664 13.7108 14.0137 13.8748 14.3926C14.0428 14.7715 14.287 15.0645 14.6073 15.2715C14.9276 15.4785 15.3221 15.582 15.7909 15.582C16.037 15.582 16.2811 15.5566 16.5233 15.5059C16.7655 15.4551 16.9549 15.3984 17.0916 15.3359V14.2344L16.1307 14.1172V12.6992H19.1541V16.2383C18.6932 16.5352 18.1717 16.7578 17.5897 16.9062C17.0116 17.0508 16.3846 17.123 15.7088 17.123ZM20.0009 17V15.7988L20.7392 15.6113V12.0547L19.8603 11.8672V10.6602H22.6787L22.7255 11.4336L22.7373 11.5918C22.8779 11.2324 23.0517 10.9688 23.2587 10.8008C23.4697 10.6289 23.7314 10.543 24.0439 10.543C24.1298 10.543 24.2314 10.5508 24.3486 10.5664C24.4658 10.5781 24.5849 10.6016 24.706 10.6367L24.5009 12.5234L23.622 12.4824C23.4189 12.4746 23.2587 12.498 23.1416 12.5527C23.0283 12.6035 22.913 12.6895 22.7959 12.8105V15.6113L23.5341 15.7988V17H20.0009ZM27.9845 17.123C27.3634 17.123 26.8204 16.9902 26.3555 16.7246C25.8946 16.4551 25.5352 16.0879 25.2774 15.623C25.0235 15.1582 24.8966 14.6328 24.8966 14.0469V13.8301C24.8966 13.1855 25.0098 12.6152 25.2364 12.1191C25.463 11.623 25.795 11.2363 26.2325 10.959C26.67 10.6777 27.2071 10.5391 27.8438 10.543C28.418 10.543 28.9024 10.6543 29.297 10.877C29.6954 11.0957 29.9981 11.4199 30.2052 11.8496C30.4122 12.2754 30.5157 12.8008 30.5157 13.4258V14.4863H27.0294L27.0235 14.5273C27.0548 14.7266 27.1212 14.9043 27.2227 15.0605C27.3282 15.2129 27.4727 15.334 27.6563 15.4238C27.8399 15.5137 28.0665 15.5586 28.336 15.5586C28.6016 15.5586 28.8614 15.5293 29.1153 15.4707C29.3731 15.4082 29.6446 15.3105 29.9298 15.1777L30.3985 16.4199C30.1134 16.623 29.7657 16.791 29.3555 16.9238C28.9454 17.0566 28.4884 17.123 27.9845 17.123ZM27.0294 13.2148H28.6407V13.0625C28.6407 12.8359 28.6173 12.6465 28.5704 12.4941C28.5274 12.3418 28.4513 12.2266 28.3419 12.1484C28.2325 12.0703 28.0821 12.0312 27.8907 12.0312C27.6837 12.0312 27.5177 12.082 27.3927 12.1836C27.2716 12.2812 27.1817 12.418 27.1231 12.5938C27.0684 12.7656 27.0294 12.9629 27.0059 13.1855L27.0294 13.2148ZM33.2434 17.123C32.6301 17.123 32.1301 16.9492 31.7434 16.6016C31.3566 16.2539 31.1633 15.791 31.1633 15.2129C31.1633 14.8184 31.2687 14.4688 31.4797 14.1641C31.6945 13.8594 32.0148 13.6211 32.4406 13.4492C32.8703 13.2734 33.4074 13.1855 34.052 13.1855H34.7141V12.8105C34.7141 12.5566 34.6418 12.3418 34.4973 12.166C34.3527 11.9863 34.1242 11.8965 33.8117 11.8965C33.6789 11.8965 33.5539 11.9141 33.4367 11.9492C33.3234 11.9805 33.2199 12.0273 33.1262 12.0898L32.9855 12.8984H31.5383L31.509 11.1348C31.8684 10.9746 32.2434 10.8359 32.634 10.7188C33.0285 10.6016 33.468 10.543 33.9523 10.543C34.8156 10.543 35.5012 10.7422 36.009 11.1406C36.5168 11.5352 36.7707 12.0996 36.7707 12.834V15.1719C36.7707 15.2617 36.7707 15.3496 36.7707 15.4355C36.7746 15.5215 36.7844 15.6035 36.8 15.6816L37.4855 15.7988V17H35.0832C35.0324 16.9297 34.9777 16.8359 34.9191 16.7188C34.8605 16.6016 34.8195 16.4844 34.7961 16.3672C34.6047 16.6055 34.3898 16.791 34.1516 16.9238C33.9133 17.0566 33.6105 17.123 33.2434 17.123ZM33.8762 15.6699C34.0246 15.6699 34.173 15.6406 34.3215 15.582C34.4738 15.5195 34.6047 15.4277 34.7141 15.3066V14.3926H34.0754C33.798 14.3926 33.5832 14.4531 33.4309 14.5742C33.2824 14.6953 33.2082 14.8555 33.2082 15.0547C33.2082 15.2461 33.2707 15.3965 33.3957 15.5059C33.5207 15.6152 33.6809 15.6699 33.8762 15.6699ZM40.1077 17.1348C39.4437 17.1348 38.9378 16.959 38.5902 16.6074C38.2464 16.252 38.0745 15.6914 38.0745 14.9258V12.0781H37.2835V10.6602H38.0745V9.0957H40.1195V10.6602H41.1566V12.0781H40.1195V14.9199C40.1195 15.127 40.1663 15.2715 40.2601 15.3535C40.3538 15.4355 40.4827 15.4766 40.6468 15.4766C40.7171 15.4766 40.7874 15.4727 40.8577 15.4648C40.928 15.457 40.9984 15.4473 41.0687 15.4355L41.2093 16.9707C41.0296 17.0215 40.848 17.0605 40.6644 17.0879C40.4847 17.1191 40.2991 17.1348 40.1077 17.1348ZM45.3022 17.123C44.6069 17.123 43.9897 17.0566 43.4506 16.9238C42.9116 16.791 42.3745 16.541 41.8393 16.1738V13.959H43.4272L43.603 15.0957C43.728 15.2363 43.9487 15.3555 44.2651 15.4531C44.5815 15.5469 44.9272 15.5938 45.3022 15.5938C45.5639 15.5938 45.7827 15.5625 45.9584 15.5C46.1342 15.4336 46.267 15.3379 46.3569 15.2129C46.4467 15.0879 46.4916 14.9375 46.4916 14.7617C46.4916 14.5938 46.4487 14.4434 46.3627 14.3105C46.2807 14.1777 46.144 14.0527 45.9526 13.9355C45.7612 13.8145 45.5034 13.6914 45.1791 13.5664C44.4487 13.332 43.8491 13.0938 43.3803 12.8516C42.9116 12.6094 42.562 12.3223 42.3315 11.9902C42.1049 11.6582 41.9916 11.2461 41.9916 10.7539C41.9916 10.2812 42.1264 9.86914 42.3959 9.51758C42.6655 9.16211 43.0366 8.88281 43.5092 8.67969C43.9819 8.47656 44.5229 8.36914 45.1323 8.35742C45.8276 8.3418 46.4428 8.41211 46.978 8.56836C47.5131 8.7207 47.9858 8.95312 48.3959 9.26562V11.3223H46.8725L46.6323 10.1797C46.4995 10.1133 46.31 10.0527 46.0639 9.99805C45.8178 9.94336 45.5561 9.91602 45.2787 9.91602C45.0405 9.91602 44.8276 9.94727 44.6401 10.0098C44.4565 10.0723 44.31 10.166 44.2006 10.291C44.0952 10.416 44.0424 10.5723 44.0424 10.7598C44.0424 10.9121 44.0873 11.0488 44.1772 11.1699C44.267 11.2871 44.4252 11.4062 44.6518 11.5273C44.8784 11.6445 45.1948 11.7812 45.601 11.9375C46.5698 12.2227 47.3041 12.5801 47.8041 13.0098C48.308 13.4355 48.56 14.0156 48.56 14.75C48.56 15.2539 48.4233 15.6836 48.1498 16.0391C47.8764 16.3906 47.4955 16.6602 47.0073 16.8477C46.519 17.0312 45.9506 17.123 45.3022 17.123ZM52.0494 17.123C51.4205 17.123 50.8795 16.9844 50.4263 16.707C49.9732 16.4297 49.6255 16.0488 49.3834 15.5645C49.1412 15.0801 49.0201 14.5273 49.0201 13.9062V13.7715C49.0201 13.1348 49.1451 12.5742 49.3951 12.0898C49.649 11.6055 50.0005 11.2266 50.4498 10.9531C50.9029 10.6797 51.4302 10.543 52.0318 10.543C52.6373 10.543 53.1548 10.6348 53.5845 10.8184C54.0181 11.002 54.3599 11.1934 54.6099 11.3926L54.5748 13.3906H53.0455L52.7994 12.2422C52.733 12.1758 52.6431 12.1211 52.5298 12.0781C52.4205 12.0352 52.3287 12.0137 52.2545 12.0137C51.9615 12.0137 51.7291 12.0781 51.5572 12.207C51.3853 12.332 51.2623 12.5234 51.188 12.7812C51.1138 13.0391 51.0767 13.3691 51.0767 13.7715V13.9062C51.0767 14.3242 51.1255 14.6543 51.2232 14.8965C51.3248 15.1348 51.4517 15.3047 51.6041 15.4062C51.7564 15.5078 51.9127 15.5586 52.0728 15.5586C52.3189 15.5586 52.5084 15.498 52.6412 15.377C52.7779 15.252 52.8834 15.0703 52.9576 14.832H54.6802L54.7037 14.8672C54.6099 15.3711 54.4634 15.791 54.2642 16.127C54.065 16.459 53.7877 16.709 53.4322 16.877C53.0806 17.041 52.6197 17.123 52.0494 17.123ZM55.2165 17V15.7988L55.9606 15.6113V9.25391L55.07 9.06641V7.85938H58.0055V11.4453C58.193 11.1602 58.4274 10.9395 58.7087 10.7832C58.9899 10.623 59.3161 10.543 59.6872 10.543C60.2966 10.543 60.7868 10.7617 61.1579 11.1992C61.529 11.6328 61.7145 12.3047 61.7145 13.2148V15.6113L62.4528 15.7988V17H59.0544V15.7988L59.6579 15.6113V13.2031C59.6579 12.7891 59.5876 12.5059 59.447 12.3535C59.3102 12.1973 59.111 12.1191 58.8493 12.1191C58.6696 12.1191 58.5075 12.1504 58.363 12.2129C58.2184 12.2754 58.0993 12.375 58.0055 12.5117V15.6113L58.6091 15.7988V17H55.2165ZM65.8133 17.123C65.1609 17.123 64.6023 16.9883 64.1375 16.7188C63.6766 16.4453 63.323 16.0664 63.077 15.582C62.8348 15.0938 62.7137 14.5293 62.7137 13.8887V13.7715C62.7137 13.1387 62.8348 12.5801 63.077 12.0957C63.323 11.6113 63.6766 11.2324 64.1375 10.959C64.5984 10.6816 65.1531 10.543 65.8016 10.543C66.4539 10.543 67.0086 10.6797 67.4656 10.9531C67.9266 11.2266 68.2781 11.6055 68.5203 12.0898C68.7664 12.5742 68.8895 13.1348 68.8895 13.7715V13.8887C68.8895 14.5254 68.7664 15.0879 68.5203 15.5762C68.2781 16.0605 67.9266 16.4395 67.4656 16.7129C67.0086 16.9863 66.4578 17.123 65.8133 17.123ZM65.8133 15.5586C66.0633 15.5586 66.2625 15.4922 66.4109 15.3594C66.5633 15.2227 66.6727 15.0293 66.7391 14.7793C66.8094 14.5293 66.8445 14.2324 66.8445 13.8887V13.7715C66.8445 13.4395 66.8094 13.1504 66.7391 12.9043C66.6727 12.6543 66.5633 12.4609 66.4109 12.3242C66.2586 12.1836 66.0555 12.1133 65.8016 12.1133C65.5516 12.1133 65.3504 12.1836 65.198 12.3242C65.0457 12.4609 64.9363 12.6543 64.8699 12.9043C64.8035 13.1504 64.7703 13.4395 64.7703 13.7715V13.8887C64.7703 14.2363 64.8035 14.5352 64.8699 14.7852C64.9363 15.0352 65.0457 15.2266 65.198 15.3594C65.3504 15.4922 65.5555 15.5586 65.8133 15.5586ZM72.5605 17.123C71.9081 17.123 71.3495 16.9883 70.8847 16.7188C70.4237 16.4453 70.0702 16.0664 69.8241 15.582C69.582 15.0938 69.4609 14.5293 69.4609 13.8887V13.7715C69.4609 13.1387 69.582 12.5801 69.8241 12.0957C70.0702 11.6113 70.4237 11.2324 70.8847 10.959C71.3456 10.6816 71.9003 10.543 72.5487 10.543C73.2011 10.543 73.7558 10.6797 74.2128 10.9531C74.6737 11.2266 75.0253 11.6055 75.2675 12.0898C75.5136 12.5742 75.6366 13.1348 75.6366 13.7715V13.8887C75.6366 14.5254 75.5136 15.0879 75.2675 15.5762C75.0253 16.0605 74.6737 16.4395 74.2128 16.7129C73.7558 16.9863 73.205 17.123 72.5605 17.123ZM72.5605 15.5586C72.8105 15.5586 73.0097 15.4922 73.1581 15.3594C73.3105 15.2227 73.4198 15.0293 73.4862 14.7793C73.5566 14.5293 73.5917 14.2324 73.5917 13.8887V13.7715C73.5917 13.4395 73.5566 13.1504 73.4862 12.9043C73.4198 12.6543 73.3105 12.4609 73.1581 12.3242C73.0058 12.1836 72.8027 12.1133 72.5487 12.1133C72.2987 12.1133 72.0976 12.1836 71.9452 12.3242C71.7929 12.4609 71.6835 12.6543 71.6171 12.9043C71.5507 13.1504 71.5175 13.4395 71.5175 13.7715V13.8887C71.5175 14.2363 71.5507 14.5352 71.6171 14.7852C71.6835 15.0352 71.7929 15.2266 71.9452 15.3594C72.0976 15.4922 72.3027 15.5586 72.5605 15.5586ZM75.962 17V15.7988L76.712 15.6113V9.25391L75.8213 9.06641V7.85938H78.7686V15.6113L79.5127 15.7988V17H75.962ZM82.6037 17.123C82.1037 17.123 81.6369 17.0781 81.2033 16.9883C80.7736 16.8945 80.3849 16.7676 80.0373 16.6074L80.0138 14.6328H81.4025L81.6369 15.5527C81.7189 15.6035 81.8244 15.6484 81.9533 15.6875C82.0822 15.7227 82.2365 15.7402 82.4162 15.7402C82.7482 15.7402 82.9767 15.6953 83.1017 15.6055C83.2267 15.5156 83.2892 15.4023 83.2892 15.2656C83.2892 15.1328 83.2169 15.0117 83.0724 14.9023C82.9318 14.7891 82.6291 14.6895 82.1642 14.6035C81.422 14.459 80.8752 14.2129 80.5236 13.8652C80.172 13.5137 79.9962 13.0762 79.9962 12.5527C79.9962 12.1973 80.0783 11.8691 80.2423 11.5684C80.4064 11.2676 80.674 11.0254 81.0451 10.8418C81.4201 10.6543 81.9201 10.5605 82.5451 10.5605C83.0216 10.5605 83.4748 10.6016 83.9044 10.6836C84.338 10.7656 84.6935 10.8691 84.9709 10.9941L84.965 12.9043H83.5822L83.4064 12.084C83.3166 12.0215 83.215 11.9746 83.1017 11.9434C82.9884 11.9121 82.8615 11.8965 82.7209 11.8965C82.4591 11.8965 82.2677 11.9434 82.1466 12.0371C82.0255 12.1309 81.965 12.252 81.965 12.4004C81.965 12.4863 81.9904 12.5723 82.0412 12.6582C82.0959 12.7441 82.2013 12.8262 82.3576 12.9043C82.5138 12.9824 82.7423 13.0547 83.0431 13.1211C83.7658 13.2812 84.3087 13.5039 84.672 13.7891C85.0392 14.0742 85.2228 14.5078 85.2228 15.0898C85.2228 15.7148 84.9982 16.2109 84.549 16.5781C84.1037 16.9414 83.4552 17.123 82.6037 17.123Z" fill="white"/>
<defs>
<linearGradient id="paint0_linear_3874_2316" x1="43" y1="39.5" x2="29.6913" y2="23.6803" gradientUnits="userSpaceOnUse">
<stop offset="0.265" stop-color="#F1F5F9"/>
<stop offset="1" stop-color="#94A3B8"/>
</linearGradient>
<linearGradient id="paint1_linear_3874_2316" x1="61" y1="61.6944" x2="86.147" y2="93.0978" gradientUnits="userSpaceOnUse">
<stop offset="0.368199" stop-color="#F1F5F9"/>
<stop offset="0.915915" stop-color="#94A3B8"/>
</linearGradient>
<linearGradient id="paint2_linear_3874_2316" x1="48" y1="4" x2="48" y2="23" gradientUnits="userSpaceOnUse">
<stop stop-color="#1A9DD1"/>
<stop offset="1" stop-color="white"/>
</linearGradient>
</defs>
</svg>
